<svg width="30" height="30" viewBox="0 0 30 30" fill="none" xmlns="http://www.w3.org/2000/svg">
<rect width="30" height="30" rx="15" fill="#F7F9FA"/>
<path d="M21 19.698V17.7624C21 16.6578 20.1046 15.7624 19 15.7624H16.3636V13.7457C16.3636 13.3913 16.5613 13.0735 16.8229 12.8343C17.3781 12.3269 17.7273 11.591 17.7273 10.7723C17.7273 9.24119 16.5062 8 15 8C13.4938 8 12.2727 9.24119 12.2727 10.7723C12.2727 11.591 12.6219 12.3269 13.1771 12.8343C13.4387 13.0735 13.6364 13.3913 13.6364 13.7457V15.7624H11C9.89543 15.7624 9 16.6578 9 17.7624V19.698C9 19.9742 9.22386 20.198 9.5 20.198H20.5C20.7761 20.198 21 19.9742 21 19.698Z" fill="#388FCD" stroke="#388FCD" stroke-width="0.794118" stroke-linejoin="round"/>
<path d="M9 22H21" stroke="#388FCD" stroke-width="0.794118" stroke-linecap="round" stroke-linejoin="round"/>
</svg>
