<svg width="14" height="16" viewBox="0 0 14 16" fill="none" xmlns="http://www.w3.org/2000/svg">
<path d="M13 12.698V10.7624C13 9.65781 12.1046 8.76238 11 8.76238H8.36364V6.74573C8.36364 6.3913 8.5613 6.07345 8.82291 5.83433C9.37812 5.32685 9.72727 4.59101 9.72727 3.77228C9.72727 2.24119 8.50623 1 7 1C5.49377 1 4.27273 2.24119 4.27273 3.77228C4.27273 4.59101 4.62188 5.32685 5.17709 5.83433C5.4387 6.07345 5.63636 6.3913 5.63636 6.74573V8.76238H3C1.89543 8.76238 1 9.65781 1 10.7624V12.698C1 12.9742 1.22386 13.198 1.5 13.198H12.5C12.7761 13.198 13 12.9742 13 12.698Z" fill="white" stroke="white" stroke-width="0.794118" stroke-linejoin="round"/>
<path d="M1 15L13 15" stroke="white" stroke-width="0.794118" stroke-linecap="round" stroke-linejoin="round"/>
</svg>
