<svg width="71" height="80" viewBox="0 0 71 80" fill="none" xmlns="http://www.w3.org/2000/svg">
<path d="M21.6031 58.8317C29.0351 54.8154 41.4594 52.1129 50.0299 52.5008C52.4322 52.6134 54.7844 53.0388 57.1241 53.5517C59.2887 54.0272 61.4407 54.5652 63.6053 55.0031C63.7304 55.0281 63.8555 55.0531 63.9806 55.0782V30.1798C63.9806 29.2039 64.7689 28.4157 65.7448 28.4157H67.7842C70.9122 28.4157 72.1633 24.3869 69.5859 22.6103L37.5932 0.564601C36.5172 -0.186102 35.0908 -0.186102 34.0023 0.55209L1.42157 22.6103C-1.18089 24.3744 0.070291 28.4282 3.21076 28.4282H5.30023C6.27615 28.4282 7.06439 29.2164 7.06439 30.1924V55.9915C7.06439 58.4939 8.62837 60.7335 10.9681 61.6093L11.4435 61.7845C13.3078 62.4726 15.3847 62.3099 17.1114 61.3215C18.838 60.3331 21.2278 59.0444 21.6281 58.8317H21.6031Z" fill="#388FCD"/>
<path d="M70.9872 62.435C70.9872 61.3715 70.6744 60.9962 69.7235 60.796C68.0844 60.4707 66.4829 59.9827 64.8564 59.5448C64.456 59.4447 64.0556 59.3446 63.6553 59.2445C63.5427 59.2195 63.4175 59.182 63.3049 59.1569C61.253 58.694 59.2261 58.1185 57.1867 57.6055C54.9846 57.055 52.7575 56.6046 50.4929 56.492C42.3727 56.0791 34.7905 58.7566 27.2834 61.8219C26.833 62.0096 26.4201 62.3224 26.0072 62.6227C25.2065 63.2233 24.8061 64.0365 25.0563 65.1376C25.2941 66.176 26.0573 66.3011 26.833 66.4137C29.0101 66.739 31.1621 66.3762 33.3141 66.1635C35.1659 65.9883 37.0051 65.4503 39.3198 65.6756C37.6933 66.8767 36.3045 67.4272 34.8906 67.79C28.9475 69.3039 23.1295 69.379 17.4617 67.8025C15.4348 67.2395 13.4329 66.4638 11.456 65.4754C11.1557 65.3252 10.8554 65.1626 10.5426 64.9999C10.3299 64.8873 10.1047 64.7622 9.89203 64.6496C7.96521 63.6361 6.00086 62.7478 3.87385 62.4475C2.37244 62.2348 0.495662 63.1357 0.145331 64.2367C-0.292582 65.6005 0.295474 67.3396 1.42154 68.0278C6.08844 70.8804 10.7929 73.608 15.7726 75.7099C16.736 76.1228 17.7119 76.5232 18.6753 76.9236C19.7889 77.3865 20.9149 77.8244 22.0535 78.2248C25.5443 79.451 29.1227 80.2767 32.9263 79.9139C39.2572 79.3258 45.4881 78.0121 51.744 76.8485C52.1945 76.7609 52.6324 76.6734 53.0828 76.5733C54.2089 76.3355 55.3224 76.0728 56.4485 75.8351C57.6496 75.5848 58.8507 75.3846 60.0644 75.2971C60.4022 75.272 60.74 75.2595 61.0778 75.2595C61.9787 75.2595 62.8921 75.3221 63.8179 75.4973C65.7823 75.8726 67.6966 76.4231 69.5734 77.1113C70.6244 77.4991 71.0122 77.349 70.9997 76.0102C70.9497 71.4685 70.9622 66.9392 70.9997 62.3975L70.9872 62.435Z" fill="#388FCD"/>
<path d="M30.8118 27.2271H28.2719C26.5029 27.2271 25.0689 28.6611 25.0689 30.43V32.9699C25.0689 34.7389 26.5029 36.1729 28.2719 36.1729H30.8118C32.5808 36.1729 34.0148 34.7389 34.0148 32.9699V30.43C34.0148 28.6611 32.5808 27.2271 30.8118 27.2271Z" fill="white"/>
<path d="M30.8118 40.6021H28.2719C26.5029 40.6021 25.0689 42.0361 25.0689 43.8051V46.345C25.0689 48.1139 26.5029 49.548 28.2719 49.548H30.8118C32.5808 49.548 34.0148 48.1139 34.0148 46.345V43.8051C34.0148 42.0361 32.5808 40.6021 30.8118 40.6021Z" fill="white"/>
<path d="M44.1869 40.6021H41.647C39.878 40.6021 38.444 42.0361 38.444 43.8051V46.345C38.444 48.1139 39.878 49.548 41.647 49.548H44.1869C45.9559 49.548 47.3899 48.1139 47.3899 46.345V43.8051C47.3899 42.0361 45.9559 40.6021 44.1869 40.6021Z" fill="white"/>
</svg>
