<svg width="30" height="30" viewBox="0 0 30 30" fill="none" xmlns="http://www.w3.org/2000/svg">
<rect width="30" height="30" rx="15" fill="white"/>
<path d="M7.8 21.2984H8.6V10.5443C8.60002 10.2764 8.67931 10.0153 8.82663 9.79805C8.97394 9.58076 9.18182 9.41827 9.4208 9.33362L15.8208 7.06539C16.0012 7.0015 16.1932 6.9841 16.3812 7.01463C16.5691 7.04515 16.7475 7.12272 16.9017 7.24095C17.0559 7.35918 17.1815 7.51468 17.2682 7.69465C17.3548 7.87462 17.4 8.0739 17.4 8.27608V21.2984H18.2V13.6327C18.2 13.5698 18.2132 13.5077 18.2385 13.4508C18.2639 13.394 18.3007 13.3438 18.3465 13.3039C18.3922 13.264 18.4457 13.2355 18.5031 13.2202C18.5605 13.205 18.6204 13.2035 18.6784 13.2158L20.4352 13.5902C20.7071 13.648 20.9518 13.8042 21.1277 14.0322C21.3036 14.2602 21.3998 14.5459 21.4 14.8408V21.2984H22.2C22.4122 21.2984 22.6157 21.388 22.7657 21.5476C22.9157 21.7072 23 21.9236 23 22.1492C23 22.3748 22.9157 22.5913 22.7657 22.7508C22.6157 22.9104 22.4122 23 22.2 23H7.8C7.58783 23 7.38434 22.9104 7.23431 22.7508C7.08429 22.5913 7 22.3748 7 22.1492C7 21.9236 7.08429 21.7072 7.23431 21.5476C7.38434 21.388 7.58783 21.2984 7.8 21.2984Z" fill="#388FCD"/>
<path d="M10.6924 11.48H11.9232" stroke="white" stroke-width="0.923077" stroke-linecap="round"/>
<path d="M10.6924 13.6339H11.9232" stroke="white" stroke-width="0.923077" stroke-linecap="round"/>
<path d="M10.6924 15.7877H11.9232" stroke="white" stroke-width="0.923077" stroke-linecap="round"/>
</svg>
