<svg width="20" height="22" viewBox="0 0 20 22" fill="none" xmlns="http://www.w3.org/2000/svg">
<path d="M15.9642 4.38823L15.0339 1.46223C14.899 1.03622 14.6394 0.665633 14.2921 0.403125C13.9448 0.140618 13.5275 -0.000459015 13.0993 -6.01919e-05H6.8991C6.47096 -0.000459015 6.0536 0.140618 5.7063 0.403125C5.359 0.665633 5.09944 1.03622 4.9645 1.46223L4.03426 4.38823C3.78689 4.49675 3.57564 4.67952 3.42706 4.91357C3.27849 5.14762 3.19922 5.42249 3.19922 5.70364V9.26846C3.19922 9.79462 3.47394 10.2495 3.87922 10.4969V12.1203C3.87922 12.3094 3.95086 12.4907 4.07839 12.6245C4.20591 12.7582 4.37887 12.8333 4.55922 12.8333H5.23922C5.41957 12.8333 5.59253 12.7582 5.72005 12.6245C5.84758 12.4907 5.91922 12.3094 5.91922 12.1203V10.6944H14.0792V12.1203C14.0792 12.3094 14.1509 12.4907 14.2784 12.6245C14.4059 12.7582 14.5789 12.8333 14.7592 12.8333H15.4392C15.6196 12.8333 15.7925 12.7582 15.9201 12.6245C16.0476 12.4907 16.1192 12.3094 16.1192 12.1203V10.4969C16.3255 10.3728 16.497 10.194 16.6164 9.97831C16.7358 9.76265 16.7988 9.51781 16.7992 9.26846V5.70364C16.7992 5.42249 16.7199 5.14762 16.5714 4.91357C16.4228 4.67952 16.2115 4.49675 15.9642 4.38823ZM6.8991 1.42587H13.0987C13.3917 1.42587 13.6515 1.62122 13.744 1.91353L14.4961 4.27772H5.50238L6.25378 1.91353C6.2989 1.77151 6.38551 1.64797 6.50133 1.56044C6.61716 1.47291 6.75632 1.42583 6.8991 1.42587ZM5.57922 8.55549C5.44523 8.55545 5.31255 8.52773 5.18878 8.47392C5.065 8.42012 4.95254 8.34128 4.85783 8.24191C4.76311 8.14253 4.68799 8.02457 4.63676 7.89476C4.58552 7.76495 4.55917 7.62582 4.55922 7.48534C4.55926 7.34485 4.5857 7.20575 4.63702 7.07597C4.68834 6.94619 4.76353 6.82828 4.85831 6.72898C4.95309 6.62967 5.0656 6.55091 5.18941 6.49719C5.31322 6.44347 5.44591 6.41585 5.5799 6.41589C5.85051 6.41599 6.11 6.52879 6.30129 6.72948C6.49258 6.93018 6.59999 7.20232 6.5999 7.48605C6.59981 7.76978 6.49222 8.04185 6.30081 8.24241C6.10939 8.44297 5.84983 8.55559 5.57922 8.55549ZM14.4192 8.55549C14.2852 8.55545 14.1526 8.52773 14.0288 8.47392C13.905 8.42012 13.7925 8.34128 13.6978 8.24191C13.6031 8.14253 13.528 8.02457 13.4768 7.89476C13.4255 7.76495 13.3992 7.62582 13.3992 7.48534C13.3993 7.34485 13.4257 7.20575 13.477 7.07597C13.5283 6.94619 13.6035 6.82828 13.6983 6.72898C13.7931 6.62967 13.9056 6.55091 14.0294 6.49719C14.1532 6.44347 14.2859 6.41585 14.4199 6.41589C14.6905 6.41599 14.95 6.52879 15.1413 6.72948C15.3326 6.93018 15.44 7.20232 15.4399 7.48605C15.4398 7.76978 15.3322 8.04185 15.1408 8.24241C14.9494 8.44297 14.6898 8.55559 14.4192 8.55549Z" fill="#388FCD"/>
<path d="M3.19922 13.9999L16.7992 20.9999" stroke="#388FCD" stroke-width="1.36" stroke-linecap="round"/>
<path d="M16.8008 13.9999L3.20078 20.9999" stroke="#388FCD" stroke-width="1.36" stroke-linecap="round"/>
<path d="M18.5 13.9999H1.5" stroke="#388FCD" stroke-width="1.36" stroke-linecap="round"/>
</svg>
