<svg width="34" height="34" viewBox="0 0 34 34" fill="none" xmlns="http://www.w3.org/2000/svg">
<rect width="34" height="34" rx="17" fill="white"/>
<path d="M22.9652 11.0628L22.0349 8.22043C21.9 7.8066 21.6404 7.4466 21.2931 7.19159C20.9458 6.93659 20.5285 6.79954 20.1003 6.79993H13.9001C13.4719 6.79954 13.0546 6.93659 12.7073 7.19159C12.36 7.4466 12.1004 7.8066 11.9655 8.22043L11.0352 11.0628C10.7879 11.1683 10.5766 11.3458 10.428 11.5732C10.2795 11.8005 10.2002 12.0676 10.2002 12.3407V15.8036C10.2002 16.3148 10.4749 16.7566 10.8802 16.997V18.574C10.8802 18.7577 10.9518 18.9339 11.0794 19.0637C11.2069 19.1936 11.3798 19.2666 11.5602 19.2666H12.2402C12.4205 19.2666 12.5935 19.1936 12.721 19.0637C12.8486 18.9339 12.9202 18.7577 12.9202 18.574V17.1888H21.0802V18.574C21.0802 18.7577 21.1518 18.9339 21.2794 19.0637C21.4069 19.1936 21.5798 19.2666 21.7602 19.2666H22.4402C22.6205 19.2666 22.7935 19.1936 22.921 19.0637C23.0486 18.9339 23.1202 18.7577 23.1202 18.574V16.997C23.3265 16.8765 23.498 16.7027 23.6174 16.4932C23.7367 16.2837 23.7998 16.0459 23.8002 15.8036V12.3407C23.8002 12.0676 23.7209 11.8005 23.5723 11.5732C23.4238 11.3458 23.2125 11.1683 22.9652 11.0628ZM13.9001 8.18511H20.0996C20.3927 8.18511 20.6525 8.37488 20.745 8.65885L21.497 10.9555H12.5034L13.2548 8.65885C13.2999 8.52088 13.3865 8.40087 13.5023 8.31584C13.6181 8.23082 13.7573 8.18508 13.9001 8.18511ZM12.5802 15.111C12.4462 15.111 12.3135 15.0841 12.1898 15.0318C12.066 14.9795 11.9535 14.9029 11.8588 14.8064C11.7641 14.7099 11.689 14.5953 11.6377 14.4692C11.5865 14.3431 11.5602 14.2079 11.5602 14.0715C11.5602 13.935 11.5867 13.7999 11.638 13.6738C11.6893 13.5477 11.7645 13.4332 11.8593 13.3367C11.9541 13.2402 12.0666 13.1637 12.1904 13.1115C12.3142 13.0594 12.4469 13.0325 12.5809 13.0326C12.8515 13.0327 13.111 13.1422 13.3023 13.3372C13.4936 13.5322 13.601 13.7965 13.6009 14.0721C13.6008 14.3478 13.4932 14.6121 13.3018 14.8069C13.1104 15.0017 12.8508 15.1111 12.5802 15.111ZM21.4202 15.111C21.2862 15.111 21.1535 15.0841 21.0298 15.0318C20.906 14.9795 20.7935 14.9029 20.6988 14.8064C20.6041 14.7099 20.529 14.5953 20.4777 14.4692C20.4265 14.3431 20.4002 14.2079 20.4002 14.0715C20.4002 13.935 20.4267 13.7999 20.478 13.6738C20.5293 13.5477 20.6045 13.4332 20.6993 13.3367C20.7941 13.2402 20.9066 13.1637 21.0304 13.1115C21.1542 13.0594 21.2869 13.0325 21.4209 13.0326C21.6915 13.0327 21.951 13.1422 22.1423 13.3372C22.3336 13.5322 22.441 13.7965 22.4409 14.0721C22.4408 14.3478 22.3332 14.6121 22.1418 14.8069C21.9504 15.0017 21.6908 15.1111 21.4202 15.111Z" fill="#388FCD"/>
<path d="M10.2002 20.4L23.8002 27.2" stroke="#388FCD" stroke-width="1.36" stroke-linecap="round"/>
<path d="M23.8003 20.4L10.2003 27.2" stroke="#388FCD" stroke-width="1.36" stroke-linecap="round"/>
<path d="M25.5005 20.4H8.50049" stroke="#388FCD" stroke-width="1.36" stroke-linecap="round"/>
</svg>
