<svg width="34" height="34" viewBox="0 0 34 34" fill="none" xmlns="http://www.w3.org/2000/svg">
<rect width="34" height="34" rx="17" fill="white"/>
<path d="M13.0336 11.56V10.6533L11.1742 12.3533C11.1577 12.3685 11.0254 12.4062 10.7775 12.4667C10.6122 12.4667 10.4843 12.4023 10.3937 12.2736C10.3032 12.1448 10.2989 12.0127 10.3809 11.8773L11.0502 10.6533V9.74668C10.7693 9.74668 10.5339 9.65964 10.3442 9.48556C10.1544 9.31148 10.0592 9.0963 10.0586 8.84002C10.0579 8.58373 10.1531 8.36855 10.3442 8.19447C10.5352 8.02039 10.7706 7.93335 11.0502 7.93335H16.0086C16.2895 7.93335 16.5252 8.02039 16.7156 8.19447C16.906 8.36855 17.0009 8.58373 17.0002 8.84002V9.54268C17.0002 9.61824 16.992 9.68261 16.9754 9.7358C16.9589 9.78899 16.9341 9.85306 16.9011 9.92802L16.0086 11.56H13.0336ZM11.0502 26.0667C10.5048 26.0667 10.0381 25.8893 9.64999 25.5345C9.26192 25.1797 9.06756 24.7526 9.06689 24.2533V19.788C9.06689 19.6369 9.08342 19.4897 9.11648 19.3465C9.14953 19.2032 9.20738 19.0633 9.29002 18.9267L12.4634 13.4413C12.6452 13.1391 12.8891 12.901 13.1952 12.7269C13.5013 12.5528 13.8441 12.4661 14.2236 12.4667H16.0086C16.2895 12.4667 16.5252 12.5537 16.7156 12.7278C16.906 12.9019 17.0009 13.1171 17.0002 13.3733V24.2533C17.0002 24.752 16.8062 25.1791 16.4181 25.5345C16.03 25.8899 15.563 26.0673 15.0169 26.0667H11.0502Z" fill="#388FCD"/>
<path d="M22.7984 10.5104L22.7981 10.5113L20.9833 15.4388L20.9476 15.4283L20.9375 15.4253L20.9273 15.4227L20.7803 15.3852L20.7684 15.3822L20.7564 15.3796C20.2401 15.2714 19.7073 15.3197 19.2166 15.5173C18.7273 15.7142 18.3027 16.0502 17.9831 16.4824L17.7378 16.8086L17.3031 17.3701L17.1446 17.5707L16.7982 17.9977C16.7412 18.0679 16.682 18.1393 16.6204 18.2119C16.6204 18.212 16.6203 18.2121 16.6202 18.2121L16.2318 18.6703C15.4359 19.5931 14.5016 20.5837 13.5118 21.4402L13.5114 21.4406C13.3354 21.5932 13.2037 21.7888 13.1238 22.0045C13.0438 22.2202 13.0167 22.4527 13.0433 22.6806C13.07 22.9085 13.1502 23.129 13.2804 23.32C13.4107 23.5113 13.5884 23.6685 13.8006 23.7701L13.8021 23.7708C14.2105 23.9647 14.6212 24.1529 15.0339 24.3353L15.0356 24.336L15.7583 24.6525L15.7582 24.6526L15.7637 24.6549L16.306 24.8858L16.306 24.8858L16.3122 24.8883L16.8885 25.1257L16.8885 25.1258L16.8942 25.128L17.495 25.3679L17.495 25.3679L17.5007 25.3702L17.8066 25.4885L17.8092 25.4895C18.836 25.8808 19.9451 26.2581 20.885 26.4647L20.8854 26.4648C21.3511 26.5667 21.8353 26.6404 22.2763 26.6328L22.2777 26.6328C22.6414 26.6256 23.343 26.5629 23.8505 25.9977L23.8505 25.9977C24.8953 24.834 25.2913 23.2859 25.431 21.9702L25.4311 21.97C25.5727 20.6315 25.4694 19.3431 25.3616 18.5045L25.3615 18.5042C25.215 17.3697 24.4578 16.508 23.5101 16.1884L25.2301 11.5173L25.2349 11.5041L25.2391 11.4907L25.2672 11.4009L25.2723 11.3848L25.2763 11.3684C25.3575 11.0419 25.3236 10.6927 25.1775 10.3884C25.0309 10.0832 24.7762 9.83514 24.4511 9.71301C24.1235 9.58999 23.7644 9.61052 23.4529 9.76714C23.144 9.9225 22.9156 10.1938 22.7984 10.5104ZM14.0452 23.2589C13.9278 23.2027 13.8256 23.1138 13.7486 23.0009C13.6716 22.888 13.6226 22.7549 13.6062 22.6148C13.5898 22.4746 13.6067 22.3322 13.6551 22.2014C13.7036 22.0706 13.782 21.956 13.8826 21.8687L14.0452 23.2589Z" fill="#388FCD" stroke="white" stroke-width="1.13333"/>
</svg>
