<svg width="18" height="20" viewBox="0 0 18 20" fill="none" xmlns="http://www.w3.org/2000/svg">
<path d="M4 3.6V2.7L2.125 4.3875C2.10833 4.4025 1.975 4.44 1.725 4.5C1.55833 4.5 1.42933 4.4361 1.338 4.3083C1.24667 4.1805 1.24233 4.0494 1.325 3.915L2 2.7V1.8C1.71667 1.8 1.47933 1.7136 1.288 1.5408C1.09667 1.368 1.00067 1.1544 1 0.9C0.999333 0.6456 1.09533 0.432 1.288 0.2592C1.48067 0.0864001 1.718 0 2 0H7C7.28333 0 7.521 0.0864001 7.713 0.2592C7.905 0.432 8.00066 0.6456 8 0.9V1.5975C8 1.6725 7.99166 1.7364 7.975 1.7892C7.95833 1.842 7.93333 1.9056 7.9 1.98L7 3.6H4ZM2 18C1.45 18 0.979333 17.8239 0.588 17.4717C0.196667 17.1195 0.000666666 16.6956 0 16.2V11.7675C0 11.6175 0.0166668 11.4714 0.0500002 11.3292C0.0833335 11.187 0.141667 11.0481 0.225 10.9125L3.425 5.4675C3.60833 5.1675 3.85433 4.9311 4.163 4.7583C4.47166 4.5855 4.81733 4.4994 5.2 4.5H7C7.28333 4.5 7.521 4.5864 7.713 4.7592C7.905 4.932 8.00066 5.1456 8 5.4V16.2C8 16.695 7.80433 17.1189 7.413 17.4717C7.02166 17.8245 6.55066 18.0006 6 18H2Z" fill="#388FCD"/>
<path d="M13.8514 2.55387L13.8511 2.5548L12.0204 7.44806L11.9759 7.43513L11.9659 7.43224L11.9559 7.42971L11.8076 7.39246L11.7958 7.38951L11.784 7.38707C11.2661 7.28022 10.7315 7.32778 10.2386 7.52311C9.74703 7.71793 9.31919 8.05073 8.99646 8.48029L8.74923 8.80401L8.31089 9.36141L8.15103 9.56042L7.80171 9.98432C7.74424 10.054 7.68445 10.1249 7.62233 10.1971L7.23062 10.6519C6.42812 11.5679 5.48591 12.5513 4.48777 13.4015L4.48733 13.4019C4.31007 13.5532 4.17667 13.7477 4.09545 13.9635C4.01428 14.1792 3.98661 14.412 4.01374 14.6403C4.04086 14.8687 4.12241 15.089 4.25418 15.2793C4.38611 15.4699 4.56522 15.6254 4.77769 15.7255L4.7792 15.7262C5.19096 15.9187 5.60497 16.1054 6.02112 16.2864L6.02277 16.2871L6.75151 16.6013L6.7515 16.6014L6.75688 16.6036L7.30381 16.8328L7.30379 16.8328L7.30988 16.8353L7.89109 17.071L7.89108 17.071L7.89674 17.0732L8.50254 17.3113L8.50252 17.3114L8.50822 17.3135L8.81671 17.431L8.81926 17.4319C9.85458 17.8203 10.9724 18.1947 11.9193 18.3995L11.9197 18.3996C12.3889 18.5007 12.876 18.5736 13.3192 18.5661L13.3205 18.5661C13.6852 18.559 14.3896 18.4974 14.9003 17.9376L14.9003 17.9376C15.9548 16.7816 16.3547 15.2428 16.4958 13.935L16.4958 13.9347C16.6389 12.6047 16.5346 11.3247 16.4258 10.4917L16.4257 10.4914C16.2773 9.35995 15.5116 8.50637 14.5613 8.19007L16.2925 3.56171L16.2975 3.54839L16.3018 3.53483L16.3302 3.44575L16.3353 3.42942L16.3395 3.4128C16.4221 3.08573 16.3875 2.7361 16.2391 2.43198C16.0904 2.12704 15.8332 1.88184 15.508 1.76163C15.1811 1.64073 14.8228 1.66075 14.5113 1.81497C14.2017 1.9682 13.9706 2.23707 13.8514 2.55387Z" fill="#388FCD" stroke="white" stroke-width="1.13333"/>
</svg>
