<svg width="15" height="19" viewBox="0 0 15 19" fill="none" xmlns="http://www.w3.org/2000/svg">
<path d="M4.66428 15.2H6.53V13.3H8.39571V11.4H6.53V9.5H4.66428V11.4H2.79857V13.3H4.66428V15.2ZM1.86571 19C1.35264 19 0.913578 18.8141 0.54852 18.4423C0.183462 18.0706 0.000621905 17.6231 0 17.1V9.5C0 8.075 0.443107 6.84 1.32932 5.795C2.21554 4.75 3.32719 4.11667 4.66428 3.895V1.9H2.79857V0H8.39571C8.92433 0 9.42185 0.0832833 9.88828 0.24985C10.3547 0.416417 10.79 0.6498 11.1943 0.95L9.84164 2.3275C9.62397 2.20083 9.3948 2.09792 9.15412 2.01875C8.91345 1.93958 8.66064 1.9 8.39571 1.9H6.53V3.895C7.86709 4.11667 8.97875 4.75 9.86496 5.795C10.7512 6.84 11.1943 8.075 11.1943 9.5V17.1C11.1943 17.6225 11.0118 18.0699 10.6467 18.4423C10.2816 18.8147 9.84226 19.0006 9.32857 19H1.86571Z" fill="#388FCD"/>
<path d="M11.7975 6.60603C12.1617 6.95199 12.6041 7.12497 13.125 7.12497C13.6466 7.12576 14.0895 6.95278 14.4537 6.60603C14.8179 6.25928 14.9999 5.83851 14.9999 5.34372C14.9999 5.00726 14.8229 4.56195 14.4687 4.00778C14.1145 3.45361 13.6666 2.90934 13.125 2.37497C12.5833 2.90934 12.1354 3.45361 11.7812 4.00778C11.4271 4.56195 11.25 5.00726 11.25 5.34372C11.2508 5.8393 11.4333 6.26007 11.7975 6.60603Z" fill="#388FCD"/>
</svg>
