<svg width="16" height="18" viewBox="0 0 16 18" fill="none" xmlns="http://www.w3.org/2000/svg">
<path d="M14.6667 0H1.33333C0.979711 0 0.640573 0.158035 0.390524 0.43934C0.140476 0.720644 0 1.10218 0 1.5V16.5C0 16.8978 0.140476 17.2794 0.390524 17.5607C0.640573 17.842 0.979711 18 1.33333 18H14.6667C15.0203 18 15.3594 17.842 15.6095 17.5607C15.8595 17.2794 16 16.8978 16 16.5V1.5C16 1.10218 15.8595 0.720644 15.6095 0.43934C15.3594 0.158035 15.0203 0 14.6667 0ZM6.66667 2.25H9.33333C9.51014 2.25 9.67971 2.32902 9.80474 2.46967C9.92976 2.61032 10 2.80109 10 3C10 3.19891 9.92976 3.38968 9.80474 3.53033C9.67971 3.67098 9.51014 3.75 9.33333 3.75H6.66667C6.48986 3.75 6.32029 3.67098 6.19526 3.53033C6.07024 3.38968 6 3.19891 6 3C6 2.80109 6.07024 2.61032 6.19526 2.46967C6.32029 2.32902 6.48986 2.25 6.66667 2.25ZM7.33333 16.5H2.66667V6H7.33333V16.5ZM13.3333 16.5H8.66667V6H13.3333V16.5Z" fill="#388FCD"/>
</svg>
