<svg width="34" height="34" viewBox="0 0 34 34" fill="none" xmlns="http://www.w3.org/2000/svg">
<rect width="34" height="34" rx="17" fill="white"/>
<path fill-rule="evenodd" clip-rule="evenodd" d="M14.6101 26.058C11.1289 25.1876 9.13326 21.5262 10.7948 18.8223C11.8588 17.0905 12.6494 15.41 11.6858 13.3537C12.5652 13.4503 13.0602 13.8424 13.7646 14.3952C13.3518 11.2944 14.4413 9.07829 17.8998 7.93335C16.9934 10.4178 18.6973 11.9376 20.1117 13.5535C21.7401 15.4139 23.1399 17.3739 23.6576 19.7469C24.2916 22.6524 22.7838 25.0326 19.6853 25.9801C19.5414 26.0241 19.3845 26.0337 19.1899 26.0667C20.999 23.4202 21.1703 21.8734 19.8149 20.5405C19.4416 21.0066 19.2314 21.5669 18.7602 21.9673C18.5246 22.1676 18.2766 22.3903 17.9196 22.2291C17.5595 22.0663 17.4292 21.7529 17.5247 21.4244C17.645 21.0105 17.8398 20.6135 18.0099 20.2118C18.5628 18.908 18.2561 18.0452 16.8323 17.1295C17.1111 18.5272 16.3004 19.4659 15.3641 20.3552C14.2264 21.4356 13.3655 22.5936 13.7099 24.2075C13.857 24.8973 14.3993 25.4014 14.6101 26.058Z" fill="#388FCD"/>
</svg>
