<svg width="14" height="18" viewBox="0 0 14 18" fill="none" xmlns="http://www.w3.org/2000/svg">
<path fill-rule="evenodd" clip-rule="evenodd" d="M4.5396 17.9914C0.956048 17.1274 -1.09831 13.4929 0.612075 10.8089C1.70738 9.0898 2.52124 7.42165 1.52928 5.38046C2.4346 5.47636 2.9441 5.86563 3.66925 6.41438C3.24432 3.3363 4.3658 1.13652 7.9261 0C6.99305 2.46619 8.74702 3.97485 10.203 5.57882C11.8793 7.42552 13.3203 9.3711 13.8532 11.7266C14.5058 14.6108 12.9538 16.9735 9.76412 17.9141C9.61599 17.9577 9.45443 17.9672 9.25411 18C11.1164 15.373 11.2928 13.8375 9.89744 12.5144C9.51316 12.9771 9.29682 13.5333 8.81178 13.9307C8.56926 14.1295 8.314 14.3507 7.94643 14.1906C7.57576 14.029 7.44158 13.7179 7.53993 13.3918C7.66377 12.981 7.86427 12.5869 8.03944 12.1881C8.60853 10.8939 8.29281 10.0375 6.82718 9.12851C7.11414 10.516 6.27961 11.4477 5.31573 12.3305C4.14464 13.403 3.25844 14.5525 3.61292 16.1545C3.76433 16.8392 4.32257 17.3396 4.5396 17.9914Z" fill="#388FCD"/>
</svg>
