<svg width="14" height="14" viewBox="0 0 14 14" fill="none" xmlns="http://www.w3.org/2000/svg">
<path fill-rule="evenodd" clip-rule="evenodd" d="M7 0C3.13401 0 0 3.13401 0 7C0 10.866 3.13401 14 7 14C10.866 14 14 10.866 14 7C14 3.13401 10.866 0 7 0ZM10.9394 5.55123C11.1936 5.30856 11.203 4.90574 10.9603 4.65152C10.7176 4.39729 10.3148 4.38792 10.0606 4.63059L5.83333 8.66572L3.93939 6.85787C3.68517 6.61519 3.28235 6.62456 3.03968 6.87879C2.79701 7.13302 2.80638 7.53583 3.06061 7.7785L5.39394 10.0058C5.63985 10.2405 6.02682 10.2405 6.27273 10.0058L10.9394 5.55123Z" fill="white"/>
</svg>
