<svg width="18" height="18" viewBox="0 0 18 18" fill="none" xmlns="http://www.w3.org/2000/svg">
<path fill-rule="evenodd" clip-rule="evenodd" d="M9 0C4.02944 0 0 4.02944 0 9C0 13.9706 4.02944 18 9 18C13.9706 18 18 13.9706 18 9C18 4.02944 13.9706 0 9 0ZM14.0649 7.13729C14.3918 6.82529 14.4038 6.30738 14.0918 5.98052C13.7798 5.65366 13.2619 5.64161 12.9351 5.95362L7.5 11.1416L5.06494 8.81726C4.73807 8.50525 4.22017 8.51729 3.90816 8.84416C3.59616 9.17102 3.6082 9.68892 3.93507 10.0009L6.93507 12.8646C7.25123 13.1664 7.74877 13.1664 8.06494 12.8646L14.0649 7.13729Z" fill="#C4C4C4"/>
</svg>
