<svg width="37" height="27" viewBox="0 0 37 27" fill="none" xmlns="http://www.w3.org/2000/svg">
<path d="M2.6 22.2349H1.3C0.955219 22.2349 0.624558 22.3806 0.380761 22.6398C0.136964 22.8991 0 23.2508 0 23.6174C0 23.9841 0.136964 24.3358 0.380761 24.595C0.624558 24.8543 0.955219 25 1.3 25H24.7C25.0448 25 25.3754 24.8543 25.6192 24.595C25.863 24.3358 26 23.9841 26 23.6174C26 23.2508 25.863 22.8991 25.6192 22.6398C25.3754 22.3806 25.0448 22.2349 24.7 22.2349H23.4H21H19.9V2C19.9 0.895433 19.0046 0 17.9 0H4.6C3.49543 0 2.6 0.895431 2.6 2V22.2349Z" fill="#388FCD"/>
<path d="M6 5.28H11" stroke="white" stroke-width="1.5" stroke-linecap="round"/>
<path d="M6 8.78H11" stroke="white" stroke-width="1.5" stroke-linecap="round"/>
<path d="M6 12.28H11" stroke="white" stroke-width="1.5" stroke-linecap="round"/>
<path d="M32.9741 10.867C32.7404 10.3893 32.401 10.0261 32.0065 9.77774C32.4436 9.37024 32.619 8.7295 32.4254 8.13899L32.0759 7.07245L32.0758 7.07235C31.8108 6.26393 30.9361 5.79856 30.1048 6.08358C30.1048 6.08359 30.1048 6.0836 30.1048 6.08361L26.7482 7.2344C26.0722 6.48483 25.1013 6 24 6C22.0281 6 20.4418 7.53552 20.2662 9.45724L16.5469 10.7327L16.5469 10.7327C15.7254 11.0144 15.3129 11.9042 15.5746 12.7023C15.5746 12.7023 15.5746 12.7024 15.5746 12.7024L15.9241 13.7689L15.9242 13.7691C15.9748 13.9235 16.0477 14.0655 16.1384 14.1921C15.6825 14.4392 15.2878 14.8307 15.0256 15.3671L15.0255 15.3671C14.3898 16.6676 13.8903 17.6825 13.4986 18.4786C12.9725 19.5476 12.6406 20.2219 12.4338 20.6633C12.2582 21.0379 12.1379 21.3157 12.0723 21.5538C11.9981 21.823 11.9996 22.0287 12.0005 22.1523C12.0005 22.1531 12.0005 22.154 12.0005 22.1548C12.0002 22.1656 12 22.1765 12 22.1875C12 23.4225 12.7815 24.3996 13.7502 25.0188C14.7302 25.6452 16.0233 26 17.4 26C18.7767 26 20.0698 25.6452 21.0498 25.0188C21.3588 24.8213 21.6487 24.5873 21.9003 24.3203V24.4375C21.9003 25.2793 22.5731 26 23.4503 26H31.1503C32.0276 26 32.7003 25.2793 32.7003 24.4375V23.3125V23.3114C32.6994 22.4707 32.0274 21.75 31.15 21.75H26.1V19.8206C26.3515 20.0876 26.6413 20.3214 26.9502 20.5188C27.9302 21.1452 29.2233 21.5 30.6 21.5C31.9767 21.5 33.2698 21.1452 34.2498 20.5188C35.2185 19.8996 36 18.9225 36 17.6875C36 17.6759 35.9998 17.6643 35.9994 17.6527C35.9999 17.516 35.9999 17.3094 35.9231 17.0351C35.8556 16.7939 35.7335 16.5133 35.5561 16.1359C35.3576 15.7139 35.0464 15.0825 34.5646 14.1051C34.1637 13.2916 33.6446 12.2386 32.9741 10.8671L32.9741 10.867ZM19.7741 15.367C19.5733 14.9565 19.2944 14.6306 18.9696 14.3894L21.9003 13.3843V19.6935C21.7508 19.3885 21.5738 19.0294 21.3646 18.6051C20.9637 17.7917 20.4446 16.7386 19.7741 15.3671L19.7741 15.367ZM26.6986 13.9786C26.4618 14.4597 26.2644 14.8609 26.1 15.1968V12.9668C26.6302 12.5994 27.0559 12.0989 27.3411 11.5188L28.0208 11.2858C27.4813 12.3881 27.0473 13.27 26.6986 13.9786ZM31.473 16.125H29.727L30.6 14.3393L31.473 16.125ZM18.273 20.625H16.527L17.4 18.8393L18.273 20.625Z" fill="#388FCD" stroke="white" stroke-width="2" stroke-linejoin="round"/>
</svg>
