<svg width="28" height="28" viewBox="0 0 28 28" fill="none" xmlns="http://www.w3.org/2000/svg">
<rect x="0.5" y="0.5" width="27" height="27" rx="5" fill="#CCCCCC"/>
<path d="M14.6541 7H11.8271H10.272C9.56923 7 9 7.58923 9 8.31672V19.6833C9 20.4108 9.56923 21 10.272 21H10.59C11.2928 21 11.862 20.4108 11.862 19.6833V15.743H14.775C17.1759 15.743 19.1126 13.6593 18.9949 11.151C18.8836 8.80061 16.9247 7 14.6541 7ZM14.7177 12.7837H11.8652V9.96261H14.7782C15.5732 9.96261 16.2124 10.6736 16.1329 11.513C16.0629 12.2471 15.4269 12.7837 14.7177 12.7837Z" fill="white"/>
</svg>
