<svg width="32" height="32" viewBox="0 0 32 32" fill="none" xmlns="http://www.w3.org/2000/svg">
<path d="M15 7.5C15 8.60457 15.8954 9.5 17 9.5H21.7373C22.1828 9.5 22.4059 8.96143 22.0909 8.64645L15.8536 2.40911C15.5386 2.09413 15 2.31721 15 2.76266V7.5ZM2.88889 0.5H15.1262C15.2588 0.5 15.386 0.552678 15.4798 0.646447L23.8536 9.02022C23.9473 9.11399 24 9.24116 24 9.37377V24.6111C24 25.3773 23.6956 26.1121 23.1539 26.6539C22.6121 27.1956 21.8773 27.5 21.1111 27.5H2.88889C2.12271 27.5 1.38791 27.1956 0.846136 26.6539C0.304364 26.1121 0 25.3773 0 24.6111V3.38889C0 1.78556 1.28556 0.5 2.88889 0.5ZM3.88889 15.5C3.3366 15.5 2.88889 15.9477 2.88889 16.5C2.88889 17.0523 3.3366 17.5 3.88889 17.5H13C13.5523 17.5 14 17.0523 14 16.5C14 15.9477 13.5523 15.5 13 15.5H3.88889ZM3.88889 20.5C3.3366 20.5 2.88889 20.9477 2.88889 21.5C2.88889 22.0523 3.3366 22.5 3.88889 22.5H10C10.5523 22.5 11 22.0523 11 21.5C11 20.9477 10.5523 20.5 10 20.5H3.88889Z" fill="#388FCD"/>
<rect x="14" y="14" width="17" height="17" rx="8.5" fill="#388FCD"/>
<rect x="14" y="14" width="17" height="17" rx="8.5" stroke="white" stroke-width="2"/>
<path d="M26.8676 21.6201H26.1844L26.8582 19.1564C26.8676 19.1196 26.8582 19.0805 26.8369 19.0506C26.8132 19.0207 26.7754 19.0023 26.7376 19.0023H25.8676C25.8109 19.0023 25.7589 19.0414 25.7447 19.0943L25.0827 21.6201H23.7849L23.1324 19.0943C23.1182 19.0391 23.0686 19 23.0095 19H21.9858C21.9267 19 21.8771 19.0391 21.8629 19.092L21.2009 21.6178H19.9031L19.253 19.0943C19.2388 19.0391 19.1891 19 19.13 19H18.2695C18.2293 19 18.1915 19.0184 18.1678 19.0483C18.1442 19.0782 18.1348 19.1173 18.1442 19.1541L18.8085 21.6178H18.1277C18.0591 21.6178 18 21.673 18 21.742V22.4988C18 22.5656 18.0567 22.6231 18.1277 22.6231H19.0851L19.9716 25.908C19.9858 25.9632 20.0378 26 20.0946 26H21.0165C21.0757 26 21.1253 25.9609 21.1395 25.908L22.0071 22.6254H22.9858L23.8511 25.908C23.8652 25.9632 23.9173 26 23.974 26H24.896C24.9527 26 25.0047 25.9632 25.0189 25.908L25.9149 22.6231H26.8723C26.9433 22.6231 27 22.5679 27 22.4988V21.742C27 21.6753 26.9433 21.6178 26.8723 21.6178L26.8676 21.6201ZM24.8227 22.6231L24.4326 24.1022L24.0449 22.6231H24.8227ZM22.7139 21.6201H22.2742L22.4965 20.7851L22.7139 21.6201ZM20.9409 22.6231L20.5508 24.1022L20.1608 22.6231H20.9385H20.9409Z" fill="white" stroke="white" stroke-width="0.2" stroke-linejoin="round"/>
</svg>
