<svg width="33" height="30" viewBox="0 0 33 30" fill="none" xmlns="http://www.w3.org/2000/svg">
<path d="M10.3802 9.58594C10.3802 8.59427 10.7349 7.74531 11.4442 7.03906C12.1525 6.33281 13.0044 5.97969 14 5.97969C14.2209 5.97969 14.4055 5.90469 14.5538 5.75469C14.7021 5.60469 14.7767 5.41875 14.7778 5.19688C14.7788 4.975 14.7041 4.78958 14.5538 4.64062C14.4034 4.49167 14.2188 4.41719 14 4.41719C12.5772 4.41719 11.3587 4.91927 10.3444 5.92344C9.33126 6.92656 8.82467 8.1474 8.82467 9.58594V13.1906C8.82467 13.4125 8.89933 13.5984 9.04867 13.7484C9.198 13.8984 9.38311 13.9729 9.604 13.9719C9.82489 13.9708 10.0095 13.8964 10.1578 13.7484C10.3061 13.6005 10.3802 13.4146 10.3802 13.1906V9.58594ZM2.51378 25C1.82207 25 1.23044 24.7526 0.738889 24.2578C0.247333 23.763 0.00103704 23.1698 0 22.4781V20.1031C0 19.4094 0.246296 18.8156 0.738889 18.3219C1.23148 17.8281 1.82259 17.5807 2.51222 17.5797H4.39756V9.5875C4.39756 6.91667 5.32933 4.65104 7.19289 2.79062C9.05645 0.930208 11.3255 0 14 0C16.6745 0 18.9436 0.930208 20.8071 2.79062C22.6707 4.65104 23.6024 6.91615 23.6024 9.58594V17.5781H25.4878C26.1784 17.5781 26.7696 17.8255 27.2611 18.3203C27.7527 18.8151 27.999 19.4089 28 20.1016V22.4766C28 23.1703 27.7537 23.7641 27.2611 24.2578C26.7685 24.7516 26.1774 24.999 25.4878 25H2.51378Z" fill="#388FCD"/>
<rect x="15" y="12" width="17" height="17" rx="8.5" fill="#388FCD"/>
<rect x="15" y="12" width="17" height="17" rx="8.5" stroke="white" stroke-width="2"/>
<path d="M25.9103 24.4999C25.5616 24.4999 25.0719 24.3739 24.3385 23.9642C23.4467 23.4642 22.7569 23.0026 21.87 22.1181C21.0148 21.2636 20.5986 20.7104 20.0162 19.6508C19.3582 18.4543 19.4704 17.8272 19.5958 17.5591C19.7451 17.2388 19.9655 17.0472 20.2504 16.857C20.4122 16.751 20.5834 16.6601 20.7619 16.5855C20.7798 16.5779 20.7964 16.5705 20.8112 16.5639C20.8996 16.5241 21.0336 16.4639 21.2032 16.5282C21.3165 16.5707 21.4176 16.6577 21.5758 16.8139C21.9003 17.1339 22.3438 17.8466 22.5074 18.1966C22.6173 18.4325 22.69 18.5883 22.6901 18.7629C22.6901 18.9674 22.5873 19.125 22.4624 19.2952C22.439 19.3272 22.4158 19.3577 22.3933 19.3874C22.2574 19.5659 22.2276 19.6176 22.2472 19.7097C22.287 19.8949 22.5841 20.4461 23.0722 20.9331C23.5603 21.4201 24.0958 21.6983 24.2817 21.7379C24.3778 21.7585 24.4305 21.7274 24.6148 21.5867C24.6413 21.5665 24.6684 21.5456 24.6968 21.5247C24.8872 21.3831 25.0376 21.2829 25.2373 21.2829H25.2383C25.4121 21.2829 25.5609 21.3583 25.8074 21.4826C26.1289 21.6447 26.8631 22.0824 27.1852 22.4072C27.3418 22.5651 27.4292 22.6658 27.4718 22.7788C27.5361 22.949 27.4756 23.0824 27.4361 23.1717C27.4295 23.1865 27.4222 23.2028 27.4145 23.2208C27.3393 23.3989 27.2479 23.5698 27.1414 23.7312C26.9516 24.0151 26.7592 24.2349 26.4381 24.3844C26.2732 24.4624 26.0927 24.5019 25.9103 24.4999Z" fill="white"/>
</svg>
