<svg width="26" height="26" viewBox="0 0 26 26" fill="none" xmlns="http://www.w3.org/2000/svg">
<path d="M1.3 23.2349H2.6V5.7595C2.60004 5.32419 2.72888 4.89993 2.96827 4.54683C3.20766 4.19373 3.54545 3.92969 3.9338 3.79214L14.3338 0.106264C14.6269 0.00244487 14.939 -0.0258302 15.2444 0.0237678C15.5498 0.0733658 15.8397 0.199418 16.0903 0.39154C16.3409 0.583662 16.545 0.836356 16.6858 1.1288C16.8265 1.42125 16.9 1.74509 16.9 2.07363V23.2349H18.2V10.7782C18.2001 10.6759 18.2214 10.575 18.2626 10.4826C18.3038 10.3902 18.3637 10.3087 18.438 10.2439C18.5124 10.1791 18.5993 10.1326 18.6926 10.1079C18.7859 10.0831 18.8831 10.0807 18.9774 10.1007L21.8322 10.709C22.2741 10.803 22.6717 11.0568 22.9576 11.4273C23.2434 11.7978 23.3997 12.2621 23.4 12.7414V23.2349H24.7C25.0448 23.2349 25.3754 23.3806 25.6192 23.6398C25.863 23.8991 26 24.2508 26 24.6175C26 24.9841 25.863 25.3358 25.6192 25.5951C25.3754 25.8543 25.0448 26 24.7 26H1.3C0.955218 26 0.624558 25.8543 0.380761 25.5951C0.136964 25.3358 0 24.9841 0 24.6175C0 24.2508 0.136964 23.8991 0.380761 23.6398C0.624558 23.3806 0.955218 23.2349 1.3 23.2349Z" fill="#388FCD"/>
<path d="M6 7.28003H8" stroke="white" stroke-width="1.5" stroke-linecap="round"/>
<path d="M6 10.78H8" stroke="white" stroke-width="1.5" stroke-linecap="round"/>
<path d="M6 14.28H8" stroke="white" stroke-width="1.5" stroke-linecap="round"/>
</svg>
