<svg width="26" height="25" viewBox="0 0 26 25" fill="none" xmlns="http://www.w3.org/2000/svg">
<path d="M25.3404 0.0254723C25.1352 -0.0247776 24.9194 0.00234437 24.7321 0.101922L23.4001 0.787179L22.0568 0.0952257C21.9364 0.0332452 21.8037 0.000977325 21.6692 0.000977325C21.5347 0.000977325 21.402 0.0332452 21.2816 0.0952257L19.9215 0.787737L18.5793 0.0952257C18.4586 0.032792 18.3254 0.000278365 18.1904 0.000278365C18.0553 0.000278365 17.9221 0.032792 17.8014 0.0952257L16.4668 0.785505L15.1424 0.0968997C15.022 0.0340367 14.8891 0.000998755 14.7541 0.000417476C14.6192 -0.000163804 14.486 0.0317276 14.3651 0.0935515L13.0001 0.788295L11.6568 0.0946676C11.5362 0.0327167 11.4034 0.000469203 11.2687 0.000469203C11.1339 0.000469203 11.0011 0.0327167 10.8805 0.0946676L9.53342 0.787179L8.18792 0.0946676C8.01446 0.00509197 7.81685 -0.0219276 7.62671 0.0179354C7.43658 0.0577985 7.26493 0.162238 7.13925 0.31453C7.00379 0.480856 6.93076 0.691732 6.93342 0.908829V14.2859L6.93613 14.2886H17.3334C17.7931 14.2886 18.234 14.4768 18.5591 14.8117C18.8842 15.1465 19.0668 15.6007 19.0668 16.0743V21.875C19.0668 23.601 20.8581 25 22.5334 25H23.1834C23.9305 25 24.6469 24.6943 25.1751 24.1501C25.7034 23.6059 26.0001 22.8678 26.0001 22.0982V0.893205C26.0003 0.693369 25.9353 0.499257 25.8157 0.341936C25.6961 0.184616 25.5287 0.0731831 25.3404 0.0254723ZM21.6668 11.6073H14.7605C14.2925 11.6073 13.8884 11.2368 13.8678 10.7547C13.8626 10.6342 13.8811 10.5138 13.9222 10.4009C13.9633 10.288 14.0262 10.1848 14.1071 10.0976C14.188 10.0104 14.2852 9.94099 14.3928 9.89356C14.5005 9.84613 14.6164 9.82167 14.7334 9.82164H21.6397C22.1077 9.82164 22.5118 10.1922 22.5324 10.6743C22.5376 10.7948 22.5191 10.9151 22.478 11.0281C22.4369 11.141 22.374 11.2442 22.2931 11.3314C22.2122 11.4186 22.115 11.488 22.0074 11.5354C21.8997 11.5828 21.7839 11.6073 21.6668 11.6073ZM21.6668 7.14311H11.2938C10.8258 7.14311 10.4218 6.77258 10.4012 6.29044C10.3959 6.16995 10.4144 6.04961 10.4555 5.93668C10.4966 5.82375 10.5595 5.72057 10.6404 5.63337C10.7213 5.54618 10.8185 5.47677 10.9262 5.42934C11.0338 5.38192 11.1497 5.35745 11.2668 5.35742H21.6397C22.1077 5.35742 22.5118 5.72795 22.5324 6.21009C22.5376 6.33058 22.5191 6.45092 22.478 6.56385C22.4369 6.67678 22.374 6.77996 22.2931 6.86716C22.2122 6.95435 22.115 7.02376 22.0074 7.07119C21.8997 7.11861 21.7839 7.14308 21.6668 7.14311Z" fill="#CCCCCC"/>
<path d="M17.3334 21.8751V16.9644C17.3334 16.7276 17.242 16.5005 17.0795 16.3331C16.917 16.1657 16.6965 16.0716 16.4667 16.0716H1.73334C1.2736 16.0731 0.833139 16.2621 0.508307 16.5972C0.183476 16.9324 0.000713877 17.3864 0 17.8601C0 20.6809 0.313084 21.8539 0.783251 22.7467C1.58113 24.2629 3.02575 25 5.20001 25H18.5077C18.5504 25.0001 18.5922 24.9871 18.6278 24.9627C18.6634 24.9383 18.6912 24.9036 18.7077 24.863C18.7242 24.8224 18.7287 24.7776 18.7206 24.7344C18.7125 24.6911 18.6921 24.6514 18.6621 24.62C18.1496 24.0904 17.3334 23.3818 17.3334 21.8751Z" fill="#CCCCCC"/>
</svg>
