<svg width="32" height="29" viewBox="0 0 32 29" fill="none" xmlns="http://www.w3.org/2000/svg">
<path d="M15.5172 4.49309L9.31035 0.355497V16.1966L15.5172 20.3342V4.49309ZM17.069 20.3342L24.4971 15.3838C24.5993 15.3156 24.6827 15.2249 24.7402 15.1194C24.7978 15.014 24.8277 14.8968 24.8276 14.778V0.739702C24.8277 0.604431 24.7889 0.471714 24.7153 0.356018C24.6417 0.240322 24.5362 0.146089 24.4102 0.08359C24.2842 0.0210912 24.1426 -0.0072738 24.0009 0.00158713C23.8592 0.0104481 23.7227 0.0561946 23.6064 0.13384L17.069 4.49309V20.3342ZM0.330518 5.30583L7.75862 0.355497V16.1966L1.22121 20.5558C1.10489 20.6335 0.968426 20.6792 0.826685 20.6881C0.684944 20.6969 0.543369 20.6686 0.417393 20.6061C0.291417 20.5436 0.185876 20.4493 0.112275 20.3336C0.0386738 20.2179 -0.000162157 20.0852 5.08905e-07 19.95V5.91169C-0.000142305 5.79284 0.0298277 5.6757 0.0873669 5.57023C0.144906 5.46475 0.228316 5.37406 0.330518 5.30583Z" fill="#388FCD"/>
<path d="M22.079 26.9932L22.079 26.9933L22.0888 26.9998C22.2503 27.1064 22.4184 27.2123 22.5752 27.311C22.632 27.3468 22.6874 27.3816 22.7404 27.4152L23.2759 27.7548L23.8114 27.4152C23.8602 27.3843 23.911 27.3523 23.9632 27.3194C24.1223 27.2192 24.294 27.111 24.4598 27.0009C24.5223 26.9605 24.5978 26.9091 24.6824 26.8502L24.684 26.849C25.7314 26.1162 26.7048 25.2827 27.5901 24.3605L27.5916 24.3589C29.1201 22.7596 31 20.1999 31 17.069C31 13.2107 27.8796 9.34485 23.2759 9.34485C18.6723 9.34485 15.5518 13.2106 15.5518 17.068C15.5518 20.1989 17.4317 22.7586 18.9598 24.3595L18.9617 24.3615C19.847 25.2837 20.8203 26.1172 21.8678 26.8501L21.8741 26.8545L21.8804 26.8588L22.079 26.9932ZM24.0318 17.8249C23.8313 18.0253 23.5594 18.138 23.2759 18.138C22.9924 18.138 22.7205 18.0253 22.52 17.8249C22.3196 17.6244 22.2069 17.3525 22.2069 17.069C22.2069 16.7855 22.3196 16.5136 22.52 16.3131C22.7205 16.1126 22.9924 16 23.2759 16C23.5594 16 23.8313 16.1126 24.0318 16.3131C24.2322 16.5136 24.3449 16.7855 24.3449 17.069C24.3449 17.3525 24.2322 17.6244 24.0318 17.8249Z" fill="#388FCD" stroke="white" stroke-width="2"/>
</svg>
