<svg width="32" height="29" viewBox="0 0 32 29" fill="none" xmlns="http://www.w3.org/2000/svg">
<path d="M15.5172 4.49309L9.31035 0.355497V16.1966L15.5172 20.3342V4.49309ZM17.069 20.3342L24.4971 15.3838C24.5993 15.3156 24.6827 15.2249 24.7402 15.1194C24.7978 15.014 24.8277 14.8968 24.8276 14.778V0.739702C24.8277 0.604431 24.7889 0.471714 24.7153 0.356018C24.6417 0.240322 24.5362 0.146089 24.4102 0.08359C24.2842 0.0210912 24.1426 -0.0072738 24.0009 0.00158713C23.8592 0.0104481 23.7227 0.0561946 23.6064 0.13384L17.069 4.49309V20.3342ZM0.330518 5.30583L7.75862 0.355497V16.1966L1.22121 20.5558C1.10489 20.6335 0.968426 20.6792 0.826685 20.6881C0.684944 20.6969 0.543369 20.6686 0.417393 20.6061C0.291417 20.5436 0.185876 20.4493 0.112275 20.3336C0.0386738 20.2179 -0.000162157 20.0852 5.08905e-07 19.95V5.91169C-0.000142305 5.79284 0.0298277 5.6757 0.0873669 5.57023C0.144906 5.46475 0.228316 5.37406 0.330518 5.30583Z" fill="#CCCCCC"/>
<path d="M23.2764 9.34485C27.8798 9.34511 31 13.2113 31 17.0695C30.9998 20.2 29.1202 22.7593 27.5918 24.3585L27.5898 24.3605C26.8152 25.1674 25.9733 25.9064 25.0732 26.5695L24.6836 26.8488L24.6826 26.8497C24.6006 26.9069 24.5262 26.9564 24.4648 26.9962L24.4658 26.9972C24.2439 27.1448 24.0108 27.2888 23.8115 27.4152L23.2764 27.755L22.7402 27.4152C22.5411 27.2889 22.3089 27.1453 22.0889 27.0001L22.0791 26.9933L21.8809 26.8585L21.874 26.8546L21.8682 26.8497C20.8207 26.1169 19.8472 25.2836 18.9619 24.3615L18.96 24.3595C17.4319 22.7586 15.5518 20.1984 15.5518 17.0675C15.552 13.2103 18.673 9.34485 23.2764 9.34485ZM23.1699 16.005C22.9253 16.0294 22.6958 16.1383 22.5205 16.3136C22.32 16.5141 22.207 16.786 22.207 17.0695L22.2119 17.1749C22.2363 17.4195 22.3452 17.65 22.5205 17.8253C22.7209 18.0255 22.9931 18.1378 23.2764 18.1378C23.5597 18.1377 23.8319 18.0257 24.0322 17.8253C24.2326 17.625 24.3446 17.3528 24.3447 17.0695C24.3447 16.7862 24.2324 16.514 24.0322 16.3136C23.8319 16.1132 23.5597 16.0002 23.2764 16.0001L23.1699 16.005Z" fill="#CCCCCC" stroke="white" stroke-width="2"/>
</svg>
