<svg width="32" height="32" viewBox="0 0 32 32" fill="none" xmlns="http://www.w3.org/2000/svg">
<path d="M0.5 3.93218C0.5 1.76068 2.21454 0 4.32913 0H19.6709C21.7855 0 23.5 1.76068 23.5 3.93218V23.0678C23.5 25.2393 21.7855 27 19.6709 27H4.32913C2.21454 27 0.5 25.2393 0.5 23.0678V3.93218Z" fill="#388FCD"/>
<path d="M5.5 7H15.5" stroke="white" stroke-width="1.5" stroke-linecap="round"/>
<path d="M5.5 11H7.5" stroke="white" stroke-width="1.5" stroke-linecap="round"/>
<path d="M10.5 11H18.5" stroke="white" stroke-width="1.5" stroke-linecap="round"/>
<path d="M28.0264 21.6096C27.9946 21.8203 27.8959 22.0167 27.743 22.1689L19.1601 30.7089C18.9727 30.8953 18.7191 31 18.4548 31H15.5C14.9477 31 14.5 30.5523 14.5 30V27.06C14.5 26.7939 14.606 26.5388 14.7947 26.3511L23.3776 17.8111C23.5357 17.6538 23.7333 17.5602 23.9384 17.5304C23.9702 17.3197 24.0689 17.1233 24.2218 16.9711L25.6288 15.5711L26.3342 16.28L25.6288 15.5711C25.7983 15.4025 26.0028 15.2755 26.1702 15.1922C26.3063 15.1245 26.5851 15 26.897 15C27.5939 15 27.9883 15.3944 28.1503 15.5564C28.1555 15.5615 28.1604 15.5665 28.1651 15.5711L29.9943 17.3911M28.0264 21.6096L29.9943 17.3911M28.0264 21.6096C28.2315 21.5798 28.4291 21.4862 28.5872 21.3289L29.9943 19.9289C30.3658 19.5592 30.5 19.0699 30.5 18.66C30.5 18.2501 30.3658 17.7608 29.9943 17.3911M28.0264 21.6096L29.9943 17.3911" fill="#388FCD" stroke="white" stroke-width="2" stroke-linejoin="round"/>
</svg>
