<svg width="28" height="24" viewBox="0 0 28 24" fill="none" xmlns="http://www.w3.org/2000/svg">
<path fill-rule="evenodd" clip-rule="evenodd" d="M23.45 16.7739H26.15C26.8967 16.7739 27.5 17.3751 27.5 18.1191V22.1548C27.5 22.8989 26.8967 23.5 26.15 23.5H1.85C1.10328 23.5 0.5 22.8989 0.5 22.1548V18.1191C0.5 17.3751 1.10328 16.7739 1.85 16.7739H4.55V19.4643H3.605C3.38141 19.4643 3.2 19.6157 3.2 19.8006V20.4733C3.2 20.6582 3.38141 20.8096 3.605 20.8096H24.395C24.6186 20.8096 24.8 20.6582 24.8 20.4733V19.8006C24.8 19.6157 24.6186 19.4643 24.395 19.4643H23.45V16.7739ZM22.1 1.85783V19.4643H5.9V1.85783C5.9 1.10955 6.51172 0.5 7.26688 0.5H20.7373C21.4883 0.5 22.1 1.10535 22.1 1.85783ZM13.7489 12.0852L18.3047 7.3166C18.4755 7.13782 18.5692 6.89813 18.5692 6.65095C18.5692 6.40377 18.4755 6.16411 18.3048 5.98533C18.2201 5.89662 18.1187 5.82548 18.0062 5.77667C17.8936 5.72784 17.7725 5.70251 17.6498 5.70251C17.527 5.70251 17.4059 5.72784 17.2933 5.77667C17.1808 5.82547 17.0794 5.89666 16.9947 5.98537L13.0651 10.0988L11.4294 8.38682C11.3457 8.29671 11.2451 8.22399 11.1329 8.17356C11.0198 8.1227 10.8976 8.09571 10.7736 8.09458C10.6496 8.09345 10.5269 8.11821 10.4129 8.16704C10.2989 8.21584 10.1963 8.28752 10.1106 8.37718C10.025 8.46681 9.95799 8.57264 9.91284 8.68816C9.86769 8.80366 9.84513 8.92697 9.84616 9.05103C9.84719 9.17508 9.8718 9.298 9.91888 9.41272C9.96559 9.52655 10.0337 9.63046 10.1199 9.71814L12.3818 12.0852C12.4702 12.1778 12.576 12.252 12.6934 12.3029C12.8109 12.3539 12.9373 12.3803 13.0653 12.3803C13.1933 12.3803 13.3197 12.3539 13.4372 12.3029C13.5546 12.252 13.6604 12.1778 13.7489 12.0852Z" fill="#388FCD"/>
</svg>
