<svg width="18" height="18" viewBox="0 0 18 18" fill="none" xmlns="http://www.w3.org/2000/svg">
<path d="M13.5274 0.000355478C13.6968 0.000355478 13.8594 0.0676715 13.9792 0.187495C14.099 0.307318 14.1663 0.469834 14.1663 0.63929V1.91716C14.1663 2.08661 14.099 2.24913 13.9792 2.36895C13.8594 2.48878 13.6968 2.55609 13.5274 2.55609C13.3579 2.55609 13.1954 2.48878 13.0756 2.36895C12.9557 2.24913 12.8884 2.08661 12.8884 1.91716V0.63929C12.8884 0.469834 12.9557 0.307318 13.0756 0.187495C13.1954 0.0676715 13.3579 0.000355478 13.5274 0.000355478ZM16.9087 0.186924C17.0287 0.067119 17.1913 -0.000119664 17.3609 1.59875e-07C17.5304 0.000119983 17.693 0.0675884 17.8128 0.187563C17.9326 0.307538 17.9998 0.470191 17.9997 0.639741C17.9996 0.809292 17.9321 0.97185 17.8121 1.09165L16.5343 2.36952C16.4143 2.48933 16.2516 2.55657 16.0821 2.55645C15.9125 2.55633 15.75 2.48886 15.6301 2.36888C15.5103 2.24891 15.4431 2.08626 15.4432 1.91671C15.4433 1.74716 15.5108 1.5846 15.6308 1.46479L16.9087 0.186924ZM7.05995 1.09165C7.23796 0.913533 7.44933 0.772233 7.68197 0.675828C7.91461 0.579422 8.16397 0.529802 8.4158 0.529802C8.66762 0.529802 8.91698 0.579422 9.14962 0.675828C9.38227 0.772233 9.59363 0.913533 9.77164 1.09165L16.9087 8.22855C17.0868 8.40656 17.2281 8.61792 17.3245 8.85055C17.4209 9.08319 17.4705 9.33255 17.4705 9.58437C17.4705 9.83619 17.4209 10.0855 17.3245 10.3182C17.2281 10.5508 17.0868 10.7622 16.9087 10.9402L15.7087 12.1401L5.86001 2.29157L7.05995 1.09165ZM5.22106 3.45954V8.04198L0.561864 12.7011C0.383739 12.8791 0.242435 13.0905 0.146028 13.3231C0.0496213 13.5557 0 13.8051 0 14.0569C0 14.3087 0.0496213 14.5581 0.146028 14.7907C0.242435 15.0234 0.383739 15.2347 0.561864 15.4127L2.5886 17.4381C2.76661 17.6163 2.97798 17.7576 3.21062 17.854C3.44326 17.9504 3.69262 18 3.94445 18C4.19627 18 4.44563 17.9504 4.67828 17.854C4.91092 17.7576 5.12228 17.6163 5.30029 17.4381L9.95821 12.779H14.5407L5.22106 3.45954ZM7.59156 11.3146L6.31366 12.5925C6.19369 12.7124 6.03096 12.7798 5.86129 12.7798C5.69161 12.7798 5.52889 12.7124 5.40891 12.5925C5.28894 12.4725 5.22153 12.3098 5.22153 12.1401C5.22153 11.9704 5.28894 11.8077 5.40891 11.6877L6.68681 10.4099C6.80678 10.2899 6.96951 10.2225 7.13918 10.2225C7.30886 10.2225 7.47158 10.2899 7.59156 10.4099C7.71153 10.5298 7.77894 10.6926 7.77894 10.8622C7.77894 11.0319 7.71153 11.1946 7.59156 11.3146ZM17.3611 5.11183H16.0832C15.9137 5.11183 15.7512 5.04451 15.6314 4.92469C15.5115 4.80487 15.4442 4.64235 15.4442 4.47289C15.4442 4.30344 15.5115 4.14092 15.6314 4.0211C15.7512 3.90128 15.9137 3.83396 16.0832 3.83396H17.3611C17.5305 3.83396 17.693 3.90128 17.8129 4.0211C17.9327 4.14092 18 4.30344 18 4.47289C18 4.64235 17.9327 4.80487 17.8129 4.92469C17.693 5.04451 17.5305 5.11183 17.3611 5.11183Z" fill="#388FCD"/>
</svg>
