<svg width="14" height="13" viewBox="0 0 14 13" fill="none" xmlns="http://www.w3.org/2000/svg">
<path d="M8.33341 2.49998L9.86208 0.971314C9.9871 0.846333 10.1566 0.776123 10.3334 0.776123C10.5102 0.776123 10.6797 0.846333 10.8047 0.971314L12.5287 2.69531C12.6537 2.82033 12.7239 2.98987 12.7239 3.16665C12.7239 3.34342 12.6537 3.51296 12.5287 3.63798L11.0001 5.16665M8.33341 2.49998L1.86208 8.97131C1.73705 9.09631 1.66679 9.26585 1.66675 9.44265V11.1666C1.66675 11.3435 1.73699 11.513 1.86201 11.6381C1.98703 11.7631 2.1566 11.8333 2.33341 11.8333H4.05741C4.23421 11.8333 4.40375 11.763 4.52875 11.638L11.0001 5.16665M8.33341 2.49998L11.0001 5.16665" stroke="#3D3D3D" stroke-width="1.5" stroke-linecap="round" stroke-linejoin="round"/>
</svg>
