<svg width="20" height="20" viewBox="0 0 20 20" fill="none" xmlns="http://www.w3.org/2000/svg">
<path d="M15.9216 10.8566L14.9982 8.03506C14.8642 7.62427 14.6066 7.26692 14.2618 7.01379C13.9171 6.76065 13.5028 6.62462 13.0778 6.625H6.92316C6.49818 6.62462 6.08388 6.76065 5.73914 7.01379C5.39439 7.26692 5.13674 7.62427 5.00279 8.03506L4.07939 10.8566C3.83384 10.9612 3.62414 11.1375 3.47666 11.3631C3.32918 11.5888 3.25049 11.8539 3.25049 12.125V15.5625C3.25049 16.0699 3.52319 16.5085 3.92549 16.7471V18.3125C3.92549 18.4948 3.9966 18.6697 4.12319 18.7986C4.24978 18.9276 4.42147 19 4.60049 19H5.27549C5.45451 19 5.6262 18.9276 5.75279 18.7986C5.87937 18.6697 5.95049 18.4948 5.95049 18.3125V16.9375H14.0505V18.3125C14.0505 18.4948 14.1216 18.6697 14.2482 18.7986C14.3748 18.9276 14.5465 19 14.7255 19H15.4005C15.5795 19 15.7512 18.9276 15.8778 18.7986C16.0044 18.6697 16.0755 18.4948 16.0755 18.3125V16.7471C16.2803 16.6274 16.4505 16.455 16.569 16.247C16.6875 16.039 16.7501 15.8029 16.7505 15.5625V12.125C16.7505 11.8539 16.6718 11.5888 16.5243 11.3631C16.3768 11.1375 16.1671 10.9612 15.9216 10.8566ZM6.92316 8H13.0771C13.3681 8 13.6259 8.18838 13.7177 8.47025L14.4643 10.75H5.53671L6.28259 8.47025C6.32737 8.3333 6.41335 8.21417 6.52832 8.12977C6.6433 8.04537 6.78144 7.99997 6.92316 8ZM5.61299 14.875C5.47998 14.875 5.34828 14.8482 5.22542 14.7963C5.10255 14.7445 4.99092 14.6684 4.8969 14.5726C4.80288 14.4768 4.72832 14.363 4.67746 14.2379C4.6266 14.1127 4.60044 13.9785 4.60049 13.8431C4.60053 13.7076 4.62677 13.5735 4.67772 13.4483C4.72866 13.3232 4.8033 13.2095 4.89738 13.1137C4.99146 13.018 5.10314 12.942 5.22604 12.8902C5.34894 12.8384 5.48066 12.8118 5.61366 12.8118C5.88228 12.8119 6.13987 12.9207 6.32975 13.1142C6.51963 13.3077 6.62625 13.5702 6.62616 13.8438C6.62607 14.1173 6.51928 14.3797 6.32927 14.5731C6.13926 14.7665 5.88161 14.8751 5.61299 14.875ZM14.388 14.875C14.255 14.875 14.1233 14.8482 14.0004 14.7963C13.8776 14.7445 13.7659 14.6684 13.6719 14.5726C13.5779 14.4768 13.5033 14.363 13.4525 14.2379C13.4016 14.1127 13.3754 13.9785 13.3755 13.8431C13.3755 13.7076 13.4018 13.5735 13.4527 13.4483C13.5037 13.3232 13.5783 13.2095 13.6724 13.1137C13.7665 13.018 13.8781 12.942 14.001 12.8902C14.1239 12.8384 14.2557 12.8118 14.3887 12.8118C14.6573 12.8119 14.9149 12.9207 15.1047 13.1142C15.2946 13.3077 15.4013 13.5702 15.4012 13.8438C15.4011 14.1173 15.2943 14.3797 15.1043 14.5731C14.9143 14.7665 14.6566 14.8751 14.388 14.875Z" fill="#388FCD"/>
<path d="M1 4H19C19 3.068 19 2.602 18.8632 2.235C18.7727 1.99218 18.6401 1.77155 18.4728 1.58572C18.3056 1.3999 18.107 1.25251 17.8885 1.152C17.5582 1 17.1388 1 16.3 1H3.7C2.8612 1 2.4418 1 2.1115 1.152C1.89296 1.25251 1.6944 1.3999 1.52715 1.58572C1.35991 1.77155 1.22726 1.99218 1.1368 2.235C1 2.602 1 3.068 1 4Z" fill="#388FCD"/>
<path d="M19 4H1M19 4C19 3.068 19 2.602 18.8632 2.235C18.7727 1.99218 18.6401 1.77155 18.4728 1.58572C18.3056 1.3999 18.107 1.25251 17.8885 1.152C17.5582 1 17.1388 1 16.3 1H3.7C2.8612 1 2.4418 1 2.1115 1.152C1.89296 1.25251 1.6944 1.3999 1.52715 1.58572C1.35991 1.77155 1.22726 1.99218 1.1368 2.235C1 2.602 1 3.068 1 4M19 4V19M1 4V19" stroke="#388FCD" stroke-width="1.7" stroke-linecap="round" stroke-linejoin="round"/>
</svg>
