<svg width="12" height="13" viewBox="0 0 12 13" fill="none" xmlns="http://www.w3.org/2000/svg">
<path d="M8.74537 12.7918C8.2244 12.7462 7.50906 12.4938 6.46676 11.7858C5.19953 10.922 4.22914 10.1421 3.01938 8.70443C1.85321 7.3158 1.30368 6.43472 0.571873 4.77514C-0.254944 2.90128 -0.00534569 1.9788 0.217054 1.59466C0.482058 1.13547 0.836454 0.877966 1.28701 0.631024C1.54266 0.49379 1.81041 0.380403 2.08688 0.2923C2.11457 0.283161 2.14035 0.274392 2.16336 0.266457C2.30068 0.218509 2.50872 0.146096 2.75386 0.264342C2.91751 0.342654 3.05721 0.485822 3.27325 0.739996C3.71635 1.2606 4.28587 2.38354 4.48459 2.92794C4.61789 3.2948 4.70616 3.53699 4.68359 3.79798C4.65686 4.10351 4.48252 4.32568 4.27371 4.56366C4.23457 4.60837 4.19588 4.65096 4.15838 4.69232C3.93193 4.94139 3.88061 5.01461 3.89792 5.15486C3.93323 5.43678 4.305 6.29935 4.97076 7.09085C5.63651 7.88234 6.40028 8.36808 6.67293 8.45162C6.81384 8.49487 6.89663 8.45533 7.19046 8.26916C7.2326 8.24246 7.2759 8.21479 7.32107 8.18728C7.62409 8.00057 7.86191 7.87053 8.16029 7.89664L8.16189 7.89678C8.42158 7.9195 8.63405 8.05155 8.98611 8.2695C9.44532 8.55382 10.4853 9.30384 10.924 9.83132C11.1375 10.0877 11.2548 10.2496 11.3038 10.4241C11.3777 10.6868 11.2697 10.8782 11.1991 11.0065C11.1873 11.0278 11.1742 11.0511 11.1604 11.077C11.0247 11.3334 10.8658 11.5767 10.6856 11.804C10.3647 12.2034 10.0486 12.5068 9.54914 12.6881C9.29254 12.7831 9.01769 12.8185 8.74537 12.7918Z" fill="#388FCD"/>
</svg>
