<svg width="12" height="11" viewBox="0 0 12 11" fill="none" xmlns="http://www.w3.org/2000/svg">
<path d="M9.31412 10.9999C8.83474 10.9999 8.16134 10.8266 7.15297 10.2633C5.92676 9.57578 4.9783 8.94106 3.75872 7.72491C2.58286 6.55001 2.01064 5.78933 1.20979 4.3323C0.305049 2.68719 0.459277 1.82486 0.631678 1.45631C0.836988 1.01581 1.14004 0.752348 1.53175 0.490849C1.75424 0.345106 1.98969 0.220172 2.23511 0.117631C2.25967 0.107073 2.28251 0.0970055 2.30289 0.0879206C2.42446 0.0331654 2.60864 -0.0495811 2.84195 0.0388128C2.99765 0.097251 3.13665 0.216828 3.35424 0.431675C3.80047 0.87168 4.41026 1.85162 4.63522 2.33288C4.78626 2.65724 4.88621 2.87135 4.88645 3.11148C4.88645 3.39263 4.745 3.60944 4.57333 3.84343C4.54116 3.88739 4.50923 3.92937 4.47829 3.97013C4.2914 4.21567 4.25039 4.28663 4.2774 4.41333C4.33217 4.66795 4.74058 5.42593 5.41176 6.09552C6.08295 6.7651 6.81922 7.14765 7.07487 7.20216C7.207 7.23039 7.27944 7.18767 7.53289 6.99419C7.56923 6.96644 7.60656 6.93771 7.64561 6.90898C7.90741 6.71427 8.11419 6.57653 8.38876 6.57653H8.39023C8.62918 6.57653 8.83376 6.68014 9.17267 6.85104C9.61472 7.07399 10.6243 7.6758 11.0671 8.12244C11.2825 8.33949 11.4026 8.47798 11.4613 8.6334C11.5497 8.8674 11.4664 9.05082 11.4122 9.17359C11.4031 9.19397 11.393 9.21631 11.3824 9.24111C11.2791 9.48605 11.1534 9.72095 11.0069 9.94286C10.7459 10.3333 10.4814 10.6355 10.0398 10.841C9.81309 10.9483 9.56494 11.0026 9.31412 10.9999Z" fill="white"/>
</svg>
