<svg width="13" height="15" viewBox="0 0 13 15" fill="none" xmlns="http://www.w3.org/2000/svg">
<path d="M9.74537 13.7915C9.2244 13.7459 8.50906 13.4935 7.46676 12.7855C6.19953 11.9218 5.22914 11.1418 4.01938 9.70419C2.85321 8.31555 2.30368 7.43447 1.57187 5.7749C0.745056 3.90104 0.994654 2.97856 1.21705 2.59442C1.48206 2.13523 1.83645 1.87772 2.28701 1.63078C2.54266 1.49355 2.81041 1.38016 3.08688 1.29206C3.11457 1.28292 3.14035 1.27415 3.16336 1.26621C3.30068 1.21827 3.50872 1.14585 3.75386 1.2641C3.91751 1.34241 4.05721 1.48558 4.27325 1.73975C4.71635 2.26036 5.28587 3.3833 5.48459 3.9277C5.61789 4.29455 5.70616 4.53674 5.68359 4.79774C5.65686 5.10327 5.48252 5.32544 5.27371 5.56342C5.23457 5.60812 5.19588 5.65072 5.15838 5.69207C4.93193 5.94114 4.88061 6.01436 4.89792 6.15462C4.93323 6.43654 5.305 7.29911 5.97076 8.0906C6.63651 8.88209 7.40028 9.36783 7.67293 9.45138C7.81384 9.49463 7.89663 9.45509 8.19046 9.26891C8.2326 9.24222 8.2759 9.21455 8.32107 9.18704C8.62409 9.00032 8.86191 8.87029 9.16029 8.89639L9.16189 8.89653C9.42158 8.91925 9.63405 9.05131 9.98611 9.26925C10.4453 9.55358 11.4853 10.3036 11.924 10.8311C12.1375 11.0874 12.2548 11.2494 12.3038 11.4239C12.3777 11.6866 12.2697 11.878 12.1991 12.0062C12.1873 12.0275 12.1742 12.0508 12.1604 12.0768C12.0247 12.3331 11.8658 12.5765 11.6856 12.8037C11.3647 13.2032 11.0486 13.5065 10.5491 13.6879C10.2925 13.7829 10.0177 13.8183 9.74537 13.7915Z" fill="#121212"/>
</svg>
