<svg width="18" height="18" viewBox="0 0 18 18" fill="none" xmlns="http://www.w3.org/2000/svg">
<path d="M17.7676 16.104L16.089 17.7842C15.9341 17.9381 15.7601 18.0097 15.567 17.9989C15.3739 17.9882 15.1999 17.9047 15.045 17.7484L8.23399 10.9418C7.83832 11.1064 7.43967 11.2418 7.03804 11.348C6.63641 11.4541 6.20916 11.5072 5.75628 11.5072C4.17122 11.506 2.81557 10.9424 1.68934 9.81631C0.563115 8.69022 0 7.3339 0 5.74735C0 5.4873 0.0154926 5.23501 0.0464788 4.99046C0.077465 4.74473 0.123945 4.49899 0.185917 4.25326C0.26815 4.03257 0.424272 3.89837 0.654285 3.85065C0.883106 3.80294 1.07856 3.8602 1.24064 4.02243L4.34224 7.09115L7.12027 4.31051L4.08839 1.24359C3.92631 1.08016 3.8691 0.883336 3.91678 0.653108C3.96445 0.424073 4.09554 0.273173 4.31006 0.200406C4.54722 0.126447 4.78558 0.0745562 5.02513 0.0447339C5.26348 0.0149116 5.51376 0 5.77595 0C7.36101 0 8.71666 0.560063 9.84289 1.68019C10.9679 2.80031 11.5304 4.14888 11.5304 5.72588C11.5316 6.21258 11.4852 6.65992 11.391 7.06788C11.2969 7.47585 11.1556 7.85519 10.9673 8.2059L17.7676 15.0233C17.9225 15.1795 18 15.3603 18 15.5654C18 15.7706 17.9225 15.9502 17.7676 16.104Z" fill="#388FCD"/>
</svg>
