<svg width="30" height="30" viewBox="0 0 30 30" fill="none" xmlns="http://www.w3.org/2000/svg">
<rect width="30" height="30" rx="15" fill="white"/>
<path d="M16 11.3286C16 11.91 16.4713 12.3813 17.0526 12.3813H19.6092C19.8425 12.3813 19.9604 12.1 19.7968 11.9336L16.4508 8.53092C16.2856 8.363 16 8.47992 16 8.71544V11.3286ZM9.54074 7.5H16.0675C16.138 7.5 16.2056 7.52834 16.2551 7.57865L20.7244 12.1237C20.7728 12.1729 20.8 12.2392 20.8 12.3082V20.577C20.8 20.9925 20.6376 21.3911 20.3487 21.6849C20.0598 21.9787 19.6679 22.1438 19.2592 22.1438H9.54074C9.13211 22.1438 8.74022 21.9787 8.45127 21.6849C8.16233 21.3911 8 20.9925 8 20.577V9.06683C8 8.19724 8.68563 7.5 9.54074 7.5ZM10.0831 15.6355C9.78356 15.6355 9.54074 15.8783 9.54074 16.1778C9.54074 16.4774 9.78356 16.7202 10.0831 16.7202H14.9243C15.2238 16.7202 15.4666 16.4774 15.4666 16.1778C15.4666 15.8783 15.2238 15.6355 14.9243 15.6355H10.0831ZM10.0831 18.3473C9.78356 18.3473 9.54074 18.5901 9.54074 18.8896C9.54074 19.1892 9.78356 19.432 10.0831 19.432H13.3243C13.6238 19.432 13.8667 19.1892 13.8667 18.8896C13.8667 18.5901 13.6238 18.3473 13.3243 18.3473H10.0831Z" fill="#388FCD"/>
<rect x="15.6001" y="14.9647" width="8.79998" height="8.93546" rx="4.39999" fill="#388FCD"/>
<rect x="15.6001" y="14.9647" width="8.79998" height="8.93546" rx="4.39999" stroke="white" stroke-width="0.8"/>
<path d="M22.3295 18.955H21.9651L22.3244 17.6188C22.3295 17.5988 22.3244 17.5776 22.3131 17.5614C22.3005 17.5452 22.2803 17.5352 22.2601 17.5352H21.7961C21.7659 17.5352 21.7381 17.5564 21.7306 17.5851L21.3776 18.955H20.6854L20.3374 17.5851C20.3298 17.5551 20.3033 17.5339 20.2718 17.5339H19.7259C19.6943 17.5339 19.6679 17.5551 19.6603 17.5838L19.3073 18.9537H18.6151L18.2683 17.5851C18.2608 17.5551 18.2343 17.5339 18.2028 17.5339H17.7438C17.7224 17.5339 17.7022 17.5439 17.6896 17.5601C17.677 17.5764 17.672 17.5976 17.677 17.6175L18.0313 18.9537H17.6682C17.6316 18.9537 17.6001 18.9837 17.6001 19.0211V19.4316C17.6001 19.4678 17.6304 19.499 17.6682 19.499H18.1788L18.6516 21.2806C18.6592 21.3105 18.6869 21.3305 18.7172 21.3305H19.2089C19.2404 21.3305 19.2669 21.3093 19.2745 21.2806L19.7372 19.5002H20.2592L20.7207 21.2806C20.7282 21.3105 20.756 21.3305 20.7862 21.3305H21.2779C21.3082 21.3305 21.3359 21.3105 21.3435 21.2806L21.8214 19.499H22.332C22.3698 19.499 22.4001 19.469 22.4001 19.4316V19.0211C22.4001 18.9849 22.3698 18.9537 22.332 18.9537L22.3295 18.955ZM21.2389 19.499L21.0308 20.3012L20.824 19.499H21.2389ZM20.1142 18.955H19.8797L19.9982 18.5021L20.1142 18.955ZM19.1686 19.499L18.9605 20.3012L18.7525 19.499H19.1673H19.1686Z" fill="white" stroke="white" stroke-width="0.105263" stroke-linejoin="round"/>
</svg>
