<svg width="16" height="19" viewBox="0 0 16 19" fill="none" xmlns="http://www.w3.org/2000/svg">
<path fill-rule="evenodd" clip-rule="evenodd" d="M4.48971 18.8977C0.945542 18.0427 -1.08625 14.4461 0.605349 11.79C1.68862 10.0889 2.49353 8.43809 1.51247 6.41817C2.40784 6.51307 2.91174 6.89828 3.62893 7.44132C3.20867 4.3953 4.31783 2.21843 7.839 1.09375C6.91621 3.53425 8.6509 5.0272 10.0909 6.61445C11.7487 8.44192 13.1739 10.3672 13.701 12.6982C14.3464 15.5524 12.8114 17.8905 9.65683 18.8212C9.51033 18.8644 9.35054 18.8738 9.15242 18.9062C10.9943 16.3066 11.1687 14.7871 9.78868 13.4778C9.40863 13.9357 9.19466 14.4861 8.71495 14.8794C8.4751 15.0761 8.22264 15.2949 7.8591 15.1365C7.49251 14.9766 7.3598 14.6688 7.45707 14.3461C7.57956 13.9395 7.77785 13.5496 7.95109 13.1549C8.51394 11.8742 8.20168 11.0267 6.75216 10.1272C7.03596 11.5002 6.21061 12.4222 5.25732 13.2958C4.0991 14.3571 3.22264 15.4946 3.57322 17.08C3.72296 17.7575 4.27507 18.2527 4.48971 18.8977Z" fill="#FA1C1C"/>
<rect x="13.46" width="2" height="6.33333" fill="#FA1C1C"/>
<rect x="13.46" y="7.20001" width="2" height="1.58333" fill="#FA1C1C"/>
</svg>
