<svg width="30" height="30" viewBox="0 0 30 30" fill="none" xmlns="http://www.w3.org/2000/svg">
<rect width="30" height="30" rx="15" fill="#F7F9FA"/>
<path d="M16 11.3286C16 11.91 16.4713 12.3813 17.0526 12.3813H19.6092C19.8425 12.3813 19.9604 12.1 19.7968 11.9336L16.4508 8.53092C16.2856 8.363 16 8.47992 16 8.71544V11.3286ZM9.54074 7.5H16.0675C16.138 7.5 16.2056 7.52834 16.2551 7.57865L20.7244 12.1237C20.7728 12.1729 20.8 12.2392 20.8 12.3082V20.577C20.8 20.9925 20.6376 21.3911 20.3487 21.6849C20.0598 21.9787 19.6679 22.1438 19.2592 22.1438H9.54074C9.13211 22.1438 8.74022 21.9787 8.45127 21.6849C8.16233 21.3911 8 20.9925 8 20.577V9.06683C8 8.19724 8.68563 7.5 9.54074 7.5ZM10.0831 15.6355C9.78356 15.6355 9.54074 15.8783 9.54074 16.1778C9.54074 16.4774 9.78356 16.7202 10.0831 16.7202H14.9243C15.2238 16.7202 15.4666 16.4774 15.4666 16.1778C15.4666 15.8783 15.2238 15.6355 14.9243 15.6355H10.0831ZM10.0831 18.3473C9.78356 18.3473 9.54074 18.5901 9.54074 18.8896C9.54074 19.1892 9.78356 19.432 10.0831 19.432H13.3243C13.6238 19.432 13.8667 19.1892 13.8667 18.8896C13.8667 18.5901 13.6238 18.3473 13.3243 18.3473H10.0831Z" fill="#388FCD"/>
<rect x="15.6" y="14.9647" width="8.79998" height="8.93546" rx="4.39999" fill="#388FCD"/>
<rect x="15.6" y="14.9647" width="8.79998" height="8.93546" rx="4.39999" stroke="#F7F9FA" stroke-width="0.8"/>
<path d="M22.329 18.9552H21.9646L22.3239 17.619C22.329 17.5991 22.3239 17.5778 22.3126 17.5616C22.3 17.5454 22.2798 17.5354 22.2596 17.5354H21.7957C21.7654 17.5354 21.7377 17.5566 21.7301 17.5853L21.3771 18.9552H20.6849L20.3369 17.5853C20.3293 17.5554 20.3028 17.5342 20.2713 17.5342H19.7254C19.6939 17.5342 19.6674 17.5554 19.6598 17.5841L19.3068 18.954H18.6146L18.2679 17.5853C18.2603 17.5554 18.2338 17.5342 18.2023 17.5342H17.7433C17.7219 17.5342 17.7017 17.5442 17.6891 17.5604C17.6765 17.5766 17.6715 17.5978 17.6765 17.6178L18.0308 18.954H17.6677C17.6311 18.954 17.5996 18.9839 17.5996 19.0214V19.4318C17.5996 19.468 17.6299 19.4992 17.6677 19.4992H18.1783L18.6511 21.2808C18.6587 21.3108 18.6864 21.3307 18.7167 21.3307H19.2084C19.24 21.3307 19.2664 21.3095 19.274 21.2808L19.7367 19.5004H20.2587L20.7202 21.2808C20.7277 21.3108 20.7555 21.3307 20.7857 21.3307H21.2775C21.3077 21.3307 21.3355 21.3108 21.343 21.2808L21.8209 19.4992H22.3315C22.3693 19.4992 22.3996 19.4693 22.3996 19.4318V19.0214C22.3996 18.9852 22.3693 18.954 22.3315 18.954L22.329 18.9552ZM21.2384 19.4992L21.0303 20.3014L20.8236 19.4992H21.2384ZM20.1137 18.9552H19.8792L19.9977 18.5023L20.1137 18.9552ZM19.1681 19.4992L18.96 20.3014L18.752 19.4992H19.1668H19.1681Z" fill="#F7F9FA" stroke="#F7F9FA" stroke-width="0.105263" stroke-linejoin="round"/>
</svg>
