<svg width="12" height="12" viewBox="0 0 12 12" fill="none" xmlns="http://www.w3.org/2000/svg">
<path d="M10.4961 6.03591L11.2261 6.68609C11.361 6.7986 11.451 6.95567 11.4801 7.12886C11.5091 7.30205 11.4752 7.47991 11.3844 7.63025L10.5041 9.13412C10.4358 9.24924 10.3383 9.34426 10.2215 9.40954C10.1033 9.47495 9.97054 9.50966 9.83544 9.5105C9.75164 9.51101 9.66826 9.49848 9.58831 9.47334L8.65391 9.16481C8.49024 9.26981 8.32011 9.36377 8.14351 9.44669L7.94726 10.3941C7.91095 10.5684 7.81392 10.7241 7.67348 10.8335C7.53127 10.9448 7.35495 11.0036 7.17438 10.9998H5.35162C5.17105 11.0036 4.99473 10.9448 4.85252 10.8335C4.71238 10.7239 4.61565 10.5682 4.57955 10.3941L4.38249 9.44669C4.20821 9.36266 4.03912 9.26826 3.87612 9.16401L2.93849 9.47334C2.85854 9.49848 2.77517 9.51101 2.69137 9.5105C2.55654 9.50953 2.42411 9.47482 2.30614 9.40954C2.18939 9.34448 2.09188 9.24975 2.02348 9.13493L1.11169 7.63025C1.0169 7.47855 0.98068 7.29749 1.00982 7.12101C1.03896 6.94452 1.13146 6.78471 1.26998 6.67155L1.99925 5.75V5.46409L1.26917 4.81391C1.13435 4.7014 1.04427 4.54433 1.01524 4.37114C0.9862 4.19795 1.02013 4.02009 1.11088 3.86975L2.02267 2.36588C2.09096 2.25076 2.18848 2.15574 2.30533 2.09046C2.4233 2.02518 2.55573 1.99047 2.69056 1.9895C2.77361 1.98427 2.85697 1.99189 2.93768 2.01212L3.85674 2.33519C4.02095 2.23019 4.19109 2.13623 4.36715 2.05331L4.5642 1.10592C4.60031 0.931759 4.69704 0.776063 4.83717 0.666547C4.97939 0.555207 5.1557 0.496431 5.33627 0.500168H7.14369C7.32426 0.496431 7.50058 0.555207 7.64279 0.666547C7.78412 0.777197 7.88104 0.933077 7.91576 1.10592L8.11282 2.05331C8.2878 2.13677 8.45659 2.231 8.61919 2.33599L9.55762 2.02747C9.66178 1.99358 9.77183 1.98168 9.88082 1.99253C9.9898 2.00337 10.0954 2.03672 10.1908 2.09046C10.3079 2.15669 10.4048 2.252 10.4734 2.36507L11.3844 3.86975C11.4805 4.02016 11.5186 4.20038 11.4915 4.37679C11.4645 4.5532 11.3742 4.71374 11.2374 4.82845L10.4961 5.46005V6.03591Z" fill="white" stroke="#388FCD" stroke-width="0.5"/>
<path d="M8.26849 5.75C8.26849 6.28552 8.05578 6.7991 7.67714 7.17777C7.2985 7.55643 6.78496 7.76917 6.24948 7.76917C5.71401 7.76917 5.20046 7.55643 4.82182 7.17777C4.44319 6.7991 4.23047 6.28552 4.23047 5.75C4.23047 5.21448 4.44319 4.7009 4.82182 4.32223C5.20046 3.94357 5.71401 3.73083 6.24948 3.73083C6.78496 3.73083 7.2985 3.94357 7.67714 4.32223C8.05578 4.7009 8.26849 5.21448 8.26849 5.75Z" fill="#388FCD"/>
</svg>
