<svg width="150" height="38" viewBox="0 0 150 38" fill="none" xmlns="http://www.w3.org/2000/svg">
<path d="M10.1923 27.945C13.699 26.0372 19.5611 24.7535 23.605 24.9378C24.7385 24.9913 25.8483 25.1933 26.9523 25.437C27.9736 25.6628 28.989 25.9184 30.0103 26.1264C30.0693 26.1383 30.1283 26.1502 30.1874 26.1621V14.3354C30.1874 13.8718 30.5593 13.4974 31.0197 13.4974H31.982C33.4579 13.4974 34.0482 11.5837 32.8321 10.7398L17.737 0.268185C17.2293 -0.0883982 16.5563 -0.0883982 16.0427 0.262242L0.670056 10.7398C-0.557863 11.5778 0.0324827 13.5034 1.51425 13.5034H2.50013C2.9606 13.5034 3.33252 13.8778 3.33252 14.3413V26.5959C3.33252 27.7845 4.07045 28.8483 5.1744 29.2643L5.39873 29.3475C6.27834 29.6744 7.25832 29.5971 8.07299 29.1276C8.88767 28.6581 10.0152 28.046 10.2041 27.945H10.1923Z" fill="#388FCD"/>
<path d="M33.494 29.6565C33.494 29.1513 33.3464 28.973 32.8977 28.8779C32.1244 28.7234 31.3687 28.4916 30.6013 28.2836C30.4124 28.2361 30.2234 28.1885 30.0345 28.141C29.9814 28.1291 29.9224 28.1113 29.8692 28.0994C28.9011 27.8795 27.9447 27.6061 26.9824 27.3625C25.9434 27.101 24.8926 26.887 23.8241 26.8335C19.9927 26.6374 16.4153 27.9092 12.8732 29.3653C12.6607 29.4544 12.4658 29.603 12.271 29.7456C11.8932 30.0309 11.7043 30.4172 11.8224 30.9402C11.9345 31.4334 12.2946 31.4929 12.6607 31.5464C13.6879 31.7009 14.7032 31.5285 15.7186 31.4275C16.5924 31.3443 17.4602 31.0888 18.5523 31.1957C17.7849 31.7663 17.1296 32.0278 16.4625 32.2001C13.6583 32.9192 10.9132 32.9549 8.23896 32.206C7.2826 31.9386 6.33805 31.5701 5.4053 31.1006C5.26362 31.0293 5.12193 30.9521 4.97435 30.8748C4.87399 30.8213 4.76773 30.7619 4.66737 30.7084C3.75823 30.227 2.83139 29.8051 1.8278 29.6624C1.11939 29.5614 0.233869 29.9893 0.0685718 30.5123C-0.138049 31.1601 0.139414 31.9862 0.670725 32.313C2.87272 33.668 5.09242 34.9636 7.44199 35.9621C7.89656 36.1582 8.35703 36.3483 8.81159 36.5385C9.337 36.7584 9.86831 36.9664 10.4055 37.1566C12.0526 37.739 13.741 38.1313 15.5356 37.9589C18.5228 37.6796 21.4627 37.0556 24.4144 36.5029C24.627 36.4613 24.8336 36.4197 25.0461 36.3721C25.5774 36.2592 26.1028 36.1344 26.6341 36.0215C27.2009 35.9026 27.7676 35.8075 28.3402 35.7659C28.4996 35.754 28.659 35.7481 28.8184 35.7481C29.2435 35.7481 29.6744 35.7778 30.1113 35.861C31.0381 36.0393 31.9414 36.3008 32.8269 36.6277C33.3228 36.8119 33.5058 36.7406 33.4999 36.1047C33.4762 33.9474 33.4822 31.796 33.4999 29.6386L33.494 29.6565Z" fill="#388FCD"/>
<path d="M14.5378 12.9326H13.3394C12.5048 12.9326 11.8281 13.6138 11.8281 14.454V15.6605C11.8281 16.5007 12.5048 17.1819 13.3394 17.1819H14.5378C15.3725 17.1819 16.0491 16.5007 16.0491 15.6605V14.454C16.0491 13.6138 15.3725 12.9326 14.5378 12.9326Z" fill="white"/>
<path d="M14.5378 19.2859H13.3394C12.5048 19.2859 11.8281 19.9671 11.8281 20.8073V22.0137C11.8281 22.854 12.5048 23.5352 13.3394 23.5352H14.5378C15.3725 23.5352 16.0491 22.854 16.0491 22.0137V20.8073C16.0491 19.9671 15.3725 19.2859 14.5378 19.2859Z" fill="white"/>
<path d="M20.8484 19.2859H19.65C18.8153 19.2859 18.1387 19.9671 18.1387 20.8073V22.0137C18.1387 22.854 18.8153 23.5352 19.65 23.5352H20.8484C21.683 23.5352 22.3596 22.854 22.3596 22.0137V20.8073C22.3596 19.9671 21.683 19.2859 20.8484 19.2859Z" fill="white"/>
<path d="M49.488 28.336C48.304 28.336 47.144 28.112 46.008 27.664C44.872 27.216 43.872 26.576 43.008 25.744L45.048 23.296C45.672 23.888 46.384 24.368 47.184 24.736C48 25.088 48.792 25.264 49.56 25.264C50.488 25.264 51.192 25.08 51.672 24.712C52.152 24.344 52.392 23.848 52.392 23.224C52.392 22.776 52.272 22.424 52.032 22.168C51.808 21.896 51.496 21.656 51.096 21.448C50.696 21.24 50.232 21.032 49.704 20.824L47.352 19.792C46.76 19.552 46.184 19.232 45.624 18.832C45.08 18.416 44.624 17.896 44.256 17.272C43.904 16.648 43.728 15.904 43.728 15.04C43.728 14.064 43.992 13.192 44.52 12.424C45.048 11.656 45.776 11.048 46.704 10.6C47.632 10.136 48.688 9.904 49.872 9.904C50.928 9.904 51.944 10.104 52.92 10.504C53.896 10.904 54.744 11.472 55.464 12.208L53.664 14.416C53.104 13.952 52.52 13.592 51.912 13.336C51.304 13.08 50.624 12.952 49.872 12.952C49.104 12.952 48.488 13.12 48.024 13.456C47.576 13.776 47.352 14.232 47.352 14.824C47.352 15.24 47.48 15.584 47.736 15.856C47.992 16.128 48.328 16.368 48.744 16.576C49.16 16.768 49.616 16.968 50.112 17.176L52.44 18.112C53.16 18.4 53.784 18.76 54.312 19.192C54.856 19.624 55.272 20.144 55.56 20.752C55.864 21.36 56.016 22.096 56.016 22.96C56.016 23.92 55.752 24.808 55.224 25.624C54.712 26.44 53.968 27.096 52.992 27.592C52.032 28.088 50.864 28.336 49.488 28.336ZM59.1606 28V10.216H63.0966L66.1206 18.568C66.3126 19.096 66.4966 19.656 66.6726 20.248C66.8486 20.824 67.0246 21.392 67.2006 21.952H67.3206C67.5126 21.392 67.6966 20.824 67.8726 20.248C68.0486 19.656 68.2166 19.096 68.3766 18.568L71.3526 10.216H75.2886V28H72.0486V20.584C72.0486 20.008 72.0726 19.376 72.1206 18.688C72.1686 18 72.2246 17.312 72.2886 16.624C72.3686 15.92 72.4406 15.296 72.5046 14.752H72.4086L70.9446 18.928L68.2086 26.392H66.1686L63.4086 18.928L61.9926 14.752H61.8966C61.9606 15.296 62.0246 15.92 62.0886 16.624C62.1526 17.312 62.2086 18 62.2566 18.688C62.3206 19.376 62.3526 20.008 62.3526 20.584V28H59.1606ZM99.891 7.888H102.939V30.112H99.891V7.888ZM97.227 16.384H100.923V18.928H97.227V16.384ZM95.043 8.248H98.019V29.128H95.043V8.248ZM84.483 10.168H93.243V24.568H84.483V10.168ZM90.291 12.664H87.459V22.096H90.291V12.664ZM121.321 7.888H124.489V30.112H121.321V7.888ZM107.089 10H110.281V23.824H107.089V10ZM107.089 21.928H109.057C110.689 21.928 112.393 21.864 114.169 21.736C115.945 21.592 117.753 21.336 119.593 20.968L119.929 23.632C118.041 24.032 116.177 24.304 114.337 24.448C112.513 24.576 110.753 24.64 109.057 24.64H107.089V21.928ZM143.471 7.864H146.663V30.16H143.471V7.864ZM139.583 15.64H144.215V18.208H139.583V15.64ZM133.127 11.392H135.671V13.384C135.671 14.728 135.543 16.048 135.287 17.344C135.031 18.64 134.647 19.848 134.135 20.968C133.639 22.088 133.007 23.08 132.239 23.944C131.471 24.808 130.575 25.504 129.551 26.032L127.679 23.512C128.607 23.08 129.415 22.504 130.103 21.784C130.791 21.048 131.359 20.232 131.807 19.336C132.255 18.424 132.583 17.464 132.791 16.456C133.015 15.432 133.127 14.408 133.127 13.384V11.392ZM133.871 11.392H136.367V13.384C136.367 14.36 136.471 15.336 136.679 16.312C136.903 17.272 137.239 18.192 137.687 19.072C138.151 19.936 138.727 20.712 139.415 21.4C140.103 22.088 140.911 22.648 141.839 23.08L139.991 25.576C138.935 25.08 138.023 24.416 137.255 23.584C136.487 22.752 135.855 21.8 135.359 20.728C134.863 19.64 134.487 18.472 134.231 17.224C133.991 15.976 133.871 14.696 133.871 13.384V11.392ZM128.567 10.024H140.927V12.592H128.567V10.024Z" fill="#388FCD"/>
</svg>
