<svg width="25" height="26" viewBox="0 0 25 26" fill="none" xmlns="http://www.w3.org/2000/svg">
<path d="M0.916748 11.2279C0.916748 10.6563 1.17556 10.1155 1.62068 9.75691L11.0651 2.14888C11.7568 1.59167 12.7433 1.59167 13.435 2.14888L22.8795 9.75691C23.3246 10.1155 23.5834 10.6563 23.5834 11.2279V23.861C23.5834 24.3826 23.1606 24.8054 22.639 24.8054H16.4686C15.947 24.8054 15.5242 24.3826 15.5242 23.861V17.5647C15.5242 16.5215 14.6785 15.6758 13.6353 15.6758H10.8649C9.82169 15.6758 8.97601 16.5215 8.97601 17.5647V23.861C8.97601 24.3826 8.55317 24.8054 8.03156 24.8054H1.86119C1.33959 24.8054 0.916748 24.3826 0.916748 23.861V11.2279Z" stroke="#B8B8B8" stroke-width="1.5"/>
</svg>
