<svg width="24" height="26" viewBox="0 0 24 26" fill="none" xmlns="http://www.w3.org/2000/svg">
<path d="M22.3891 20.9097V18.0764C22.3891 15.99 20.6977 14.2986 18.6113 14.2986H14.3613V10.9786C14.3613 10.3043 14.7423 9.70203 15.2336 9.24025C16.1501 8.3789 16.7224 7.15561 16.7224 5.79864C16.7224 3.19063 14.6082 1.07642 12.0002 1.07642C9.39221 1.07642 7.278 3.19063 7.278 5.79864C7.278 7.15561 7.85036 8.3789 8.76683 9.24025C9.25815 9.70203 9.63911 10.3043 9.63911 10.9786V14.2986H5.38911C3.3027 14.2986 1.61133 15.99 1.61133 18.0764V20.9097C1.61133 21.4314 2.03417 21.8542 2.55577 21.8542H21.4447C21.9663 21.8542 22.3891 21.4314 22.3891 20.9097Z" fill="#388FCD" stroke="#388FCD" stroke-width="1.5" stroke-linejoin="round"/>
<path d="M1.61133 24.9236H22.3891" stroke="#388FCD" stroke-width="1.5" stroke-linecap="round" stroke-linejoin="round"/>
</svg>
