<svg width="25" height="26" viewBox="0 0 25 26" fill="none" xmlns="http://www.w3.org/2000/svg">
<path d="M23.5835 15.3684V24.1543C23.5835 24.514 23.2919 24.8055 22.9323 24.8055H14.1308C8.91593 24.8055 4.68846 20.5781 4.68846 15.3632C4.68846 10.1484 8.91853 5.9209 14.1334 5.9209C19.3511 5.9209 23.5835 10.1507 23.5835 15.3684Z" stroke="#388FCD" stroke-width="1.5"/>
<path d="M0.916748 11.1142V20.3395C0.916748 20.7171 1.22288 21.0232 1.6005 21.0232H10.8421C16.3177 21.0232 20.7565 16.5844 20.7565 11.1088C20.7565 5.63318 16.315 1.19434 10.8394 1.19434C5.36077 1.19434 0.916748 5.63563 0.916748 11.1142Z" fill="#388FCD" stroke="#388FCD" stroke-width="1.5"/>
<circle cx="7.05358" cy="11.1117" r="0.944444" fill="white"/>
<circle cx="10.8314" cy="11.1117" r="0.944444" fill="white"/>
<circle cx="14.6092" cy="11.1117" r="0.944444" fill="white"/>
</svg>
