<svg width="25" height="26" viewBox="0 0 25 26" fill="none" xmlns="http://www.w3.org/2000/svg">
<path d="M23.5835 15.3684V24.1544C23.5835 24.514 23.2919 24.8056 22.9323 24.8056H14.1308C8.91593 24.8056 4.68846 20.5781 4.68846 15.3632C4.68846 10.1484 8.91853 5.92092 14.1334 5.92092C19.3511 5.92092 23.5835 10.1507 23.5835 15.3684Z" fill="white" stroke="#B8B8B8" stroke-width="1.5"/>
<path d="M0.916748 11.1143V20.3396C0.916748 20.7172 1.22288 21.0233 1.6005 21.0233H10.8421C16.3177 21.0233 20.7565 16.5845 20.7565 11.1089C20.7565 5.63329 16.315 1.19444 10.8394 1.19444C5.36077 1.19444 0.916748 5.63574 0.916748 11.1143Z" fill="white" stroke="#B8B8B8" stroke-width="1.5"/>
<circle cx="7.05358" cy="11.1117" r="0.944444" fill="#B8B8B8"/>
<circle cx="10.8314" cy="11.1117" r="0.944444" fill="#B8B8B8"/>
<circle cx="14.6092" cy="11.1117" r="0.944444" fill="#B8B8B8"/>
</svg>
