<svg width="25" height="26" viewBox="0 0 25 26" fill="none" xmlns="http://www.w3.org/2000/svg">
<path d="M0.916748 11.228C0.916748 10.6564 1.17556 10.1156 1.62068 9.75702L11.0651 2.14899C11.7568 1.59178 12.7433 1.59178 13.435 2.14899L22.8795 9.75702C23.3246 10.1156 23.5834 10.6564 23.5834 11.228V23.8611C23.5834 24.3827 23.1606 24.8056 22.639 24.8056H16.4686C15.947 24.8056 15.5242 24.3827 15.5242 23.8611V17.5648C15.5242 16.5216 14.6785 15.6759 13.6353 15.6759H10.8649C9.82169 15.6759 8.97601 16.5216 8.97601 17.5648V23.8611C8.97601 24.3827 8.55317 24.8056 8.03156 24.8056H1.86119C1.33959 24.8056 0.916748 24.3827 0.916748 23.8611V11.228Z" fill="#388FCD" stroke="#388FCD" stroke-width="1.5"/>
</svg>
