<svg width="14" height="14" viewBox="0 0 14 14" fill="none" xmlns="http://www.w3.org/2000/svg">
<path d="M8.33341 3.00001L9.86208 1.47134C9.9871 1.34636 10.1566 1.27615 10.3334 1.27615C10.5102 1.27615 10.6797 1.34636 10.8047 1.47134L12.5287 3.19534C12.6537 3.32036 12.7239 3.4899 12.7239 3.66668C12.7239 3.84345 12.6537 4.01299 12.5287 4.13801L11.0001 5.66668M8.33341 3.00001L1.86208 9.47134C1.73705 9.59634 1.66679 9.76588 1.66675 9.94268V11.6667C1.66675 11.8435 1.73699 12.0131 1.86201 12.1381C1.98703 12.2631 2.1566 12.3333 2.33341 12.3333H4.05741C4.23421 12.3333 4.40375 12.263 4.52875 12.138L11.0001 5.66668M8.33341 3.00001L11.0001 5.66668" stroke="#388FCD" stroke-width="1.5" stroke-linecap="round" stroke-linejoin="round"/>
</svg>
