<svg width="30" height="30" viewBox="0 0 30 30" fill="none" xmlns="http://www.w3.org/2000/svg">
<rect width="30" height="30" rx="15" fill="white"/>
<path fill-rule="evenodd" clip-rule="evenodd" d="M20.95 17.9059H22.65C23.1202 17.9059 23.5 18.2718 23.5 18.7247V21.1812C23.5 21.6341 23.1202 22 22.65 22H7.35C6.87984 22 6.5 21.6341 6.5 21.1812V18.7247C6.5 18.2718 6.87984 17.9059 7.35 17.9059H9.05V19.5435H8.455C8.31422 19.5435 8.2 19.6356 8.2 19.7482V20.1576C8.2 20.2702 8.31422 20.3623 8.455 20.3623H21.545C21.6858 20.3623 21.8 20.2702 21.8 20.1576V19.7482C21.8 19.6356 21.6858 19.5435 21.545 19.5435H20.95V17.9059ZM20.1 8.8265V19.5435H9.9V8.8265C9.9 8.37103 10.2852 8 10.7606 8H19.242C19.7148 8 20.1 8.36847 20.1 8.8265ZM14.8419 15.0518L17.7104 12.1492C17.8179 12.0404 17.8769 11.8945 17.8769 11.744C17.8769 11.5936 17.8179 11.4477 17.7104 11.3389C17.6571 11.2849 17.5933 11.2416 17.5224 11.2119C17.4516 11.1822 17.3753 11.1667 17.298 11.1667C17.2207 11.1667 17.1444 11.1822 17.0736 11.2119C17.0027 11.2416 16.9389 11.2849 16.8856 11.3389L14.4114 13.8428L13.3815 12.8007C13.3288 12.7458 13.2655 12.7015 13.1948 12.6708C13.1236 12.6399 13.0467 12.6235 12.9686 12.6228C12.8905 12.6221 12.8132 12.6372 12.7415 12.6669C12.6697 12.6966 12.6051 12.7402 12.5512 12.7948C12.4972 12.8493 12.455 12.9138 12.4266 12.9841C12.3982 13.0544 12.384 13.1294 12.3846 13.205C12.3853 13.2805 12.4008 13.3553 12.4304 13.4251C12.4598 13.4944 12.5027 13.5577 12.557 13.611L13.9811 15.0518C14.0368 15.1082 14.1034 15.1534 14.1773 15.1844C14.2513 15.2154 14.3309 15.2315 14.4115 15.2315C14.4921 15.2315 14.5717 15.2154 14.6456 15.1844C14.7196 15.1534 14.7862 15.1082 14.8419 15.0518Z" fill="#C4C4C4"/>
</svg>
