<svg width="16" height="16" viewBox="0 0 16 16" fill="none" xmlns="http://www.w3.org/2000/svg">
<path fill-rule="evenodd" clip-rule="evenodd" d="M15.5 8C15.5 12.1423 12.1423 15.5 8 15.5C3.85775 15.5 0.5 12.1423 0.5 8C0.5 3.85775 3.85775 0.5 8 0.5C12.1423 0.5 15.5 3.85775 15.5 8ZM7.25 5C7.25 5.19891 7.32902 5.38968 7.46967 5.53033C7.61032 5.67098 7.80109 5.75 8 5.75H8.006C8.20491 5.75 8.39568 5.67098 8.53633 5.53033C8.67698 5.38968 8.756 5.19891 8.756 5C8.756 4.80109 8.67698 4.61032 8.53633 4.46967C8.39568 4.32902 8.20491 4.25 8.006 4.25H8C7.80109 4.25 7.61032 4.32902 7.46967 4.46967C7.32902 4.61032 7.25 4.80109 7.25 5ZM8 11.75C8.19891 11.75 8.38968 11.671 8.53033 11.5303C8.67098 11.3897 8.75 11.1989 8.75 11V7.25C8.75 7.05109 8.67098 6.86032 8.53033 6.71967C8.38968 6.57902 8.19891 6.5 8 6.5C7.80109 6.5 7.61032 6.57902 7.46967 6.71967C7.32902 6.86032 7.25 7.05109 7.25 7.25V11C7.25 11.1989 7.32902 11.3897 7.46967 11.5303C7.61032 11.671 7.80109 11.75 8 11.75Z" fill="#FF5C5C"/>
</svg>
